<svg width="153" height="116" viewBox="0 0 153 116" fill="none" xmlns="http://www.w3.org/2000/svg">
<path d="M80.5818 54.1117C80.5818 68.4693 68.9403 80.1108 54.5792 80.1108C40.219 80.1108 28.5767 68.4693 28.5767 54.1117C28.5767 39.748 40.219 28.1075 54.5792 28.1075C68.9403 28.1075 80.5818 39.748 80.5818 54.1117Z" fill="#F8A62C"/>
<path d="M54.58 21.0605C52.7695 21.0605 51.3027 19.5902 51.3027 17.7806V3.52123C51.3027 1.71163 52.7695 0.24131 54.58 0.24131C56.3904 0.24131 57.8572 1.71163 57.8572 3.52123V17.7806C57.8572 19.5902 56.3904 21.0605 54.58 21.0605Z" fill="#F8A62C"/>
<path d="M17.889 57.7465H3.62885C1.81838 57.7465 0.351562 56.278 0.351562 54.4684C0.351562 52.6588 1.81838 51.1885 3.62885 51.1885H17.889C19.6995 51.1885 21.1663 52.6588 21.1663 54.4684C21.1663 56.278 19.6995 57.7465 17.889 57.7465Z" fill="#F8A62C"/>
<path d="M28.6362 31.8049C27.7975 31.8049 26.9589 31.4829 26.3186 30.8391L16.2352 20.7559C14.9554 19.477 14.9554 17.4064 16.2352 16.1275C17.5159 14.8486 19.5891 14.8486 20.8697 16.1275L30.9531 26.2107C32.2328 27.4896 32.2328 29.5602 30.9531 30.8391C30.3128 31.4829 29.474 31.8049 28.6362 31.8049Z" fill="#F8A62C"/>
<path d="M18.5521 93.7731C17.7143 93.7731 16.8755 93.4538 16.2352 92.8135C14.9554 91.5346 14.9554 89.4579 16.2352 88.179L26.3186 78.0958C27.5992 76.816 29.6724 76.816 30.9531 78.0958C32.2328 79.3747 32.2328 81.4504 30.9531 82.7302L20.8697 92.8135C20.2294 93.4538 19.3907 93.7731 18.5521 93.7731Z" fill="#F8A62C"/>
<path d="M80.5234 31.8049C79.6847 31.8049 78.846 31.4829 78.2066 30.8391C76.9259 29.5602 76.9259 27.4896 78.2066 26.2107L88.2881 16.1275C89.5662 14.8486 91.6428 14.8486 92.9226 16.1275C94.2023 17.4064 94.2023 19.477 92.9226 20.7559L82.8402 30.8391C82.2016 31.4829 81.3621 31.8049 80.5234 31.8049Z" fill="#F8A62C"/>
<path d="M126.972 64.2193C126.961 64.2193 126.949 64.2202 126.938 64.2202C126.943 64.0001 126.972 63.7869 126.972 63.5651C126.972 46.1424 112.85 32.0224 95.43 32.0224C78.01 32.0224 63.8881 46.1424 63.8881 63.5651C63.8881 63.5859 63.8916 63.606 63.8916 63.626C50.2265 64.2611 39.335 75.5075 39.335 89.3292C39.335 103.558 50.8694 115.093 65.0983 115.093H126.972C141.02 115.093 152.408 103.704 152.408 89.6555C152.408 75.6076 141.02 64.2193 126.972 64.2193" fill="#62C6EF"/>
</svg>
