<svg width="140" height="117" viewBox="0 0 140 117" fill="none" xmlns="http://www.w3.org/2000/svg">
<path d="M118.293 58.5835C103.929 58.5835 92.2889 46.942 92.2889 32.5818C92.2889 18.2215 103.929 6.58095 118.293 6.58095C120.59 6.58095 122.8 6.90719 124.914 7.46399C118.772 3.04961 111.264 0.421326 103.129 0.421326C82.4753 0.421326 65.7261 17.1671 65.7261 37.8235C65.7261 58.4799 82.4753 75.2248 103.129 75.2248C120.172 75.2248 134.527 63.8095 139.034 48.2148C134.292 54.5014 126.776 58.5835 118.293 58.5835Z" fill="#F8A62C"/>
<path d="M87.8432 65.8541C87.8345 65.8541 87.8258 65.8549 87.8171 65.8549C87.8171 65.6348 87.8432 65.4208 87.8432 65.1998C87.8432 47.7798 73.7231 33.658 56.3049 33.658C38.8849 33.658 24.7631 47.7798 24.7631 65.1998C24.7631 65.2207 24.7666 65.2407 24.7666 65.2607C11.1015 65.8958 0.209961 77.1423 0.209961 90.964C0.209961 105.193 11.7444 116.727 25.9732 116.727H87.8432C101.894 116.727 113.282 105.339 113.282 91.2903C113.282 77.2424 101.894 65.8541 87.8432 65.8541Z" fill="#62C6EF"/>
</svg>
