<svg width="360" height="640" viewBox="0 0 360 640" fill="none" xmlns="http://www.w3.org/2000/svg">
<g clip-path="url(#clip0)">
<rect width="360" height="640" fill="white"/>
<rect width="482.807" height="640" fill="#7BD5F5"/>
<path d="M89.3671 529.089C38.6102 514.152 0 426.667 0 426.667V640H482.807V564.739C482.807 564.739 332.747 467.907 228.757 479.293C171.335 485.58 144.808 545.405 89.3671 529.089Z" fill="#79E2DC"/>
<path d="M117.061 441.023C87.3758 372.624 0 537.685 0 537.685V640H482.807L481.687 425.195C481.687 425.195 376.551 617.135 333.82 553.513C323.607 538.306 330.75 522.099 317.577 509.421C287.683 480.648 250.925 578.385 236.363 577.82C221.8 577.254 225.161 513.378 210.598 537.685C196.035 561.992 181.473 571.036 158.509 565.383C135.544 559.731 146.746 509.421 117.061 441.023Z" fill="#99E4FF" fill-opacity="0.6"/>
<path d="M351.132 543.27C410.176 539.807 482.807 469.333 482.807 469.333V640H0V503.244C0 503.244 71.3395 575.44 128.861 573.846C179.475 572.443 192.621 517.261 243.092 513.251C286.78 509.78 307.38 545.837 351.132 543.27Z" fill="#59D4FF" fill-opacity="0.8"/>
<path d="M374.708 506.118C440.688 497.099 482.807 376.14 482.807 376.14V640H0V544.609C0 544.609 37.8998 571.789 66.0919 579.195C152.599 601.922 177.864 464.505 267.168 469.858C311.426 472.511 330.781 512.122 374.708 506.118Z" fill="#2EBFF3" fill-opacity="0.6"/>
</g>
<defs>
<clipPath id="clip0">
<rect width="360" height="640" fill="white"/>
</clipPath>
</defs>
</svg>
