<svg width="360" height="640" viewBox="0 0 360 640" fill="none" xmlns="http://www.w3.org/2000/svg">
<rect width="360" height="640" fill="#7BE494"/>
<path d="M74 388.5C20.5146 381.841 0 272 0 272V639.5H359.5V506.5C359.5 506.5 312.478 374.933 251.5 388.5C226.969 393.958 222.448 426.523 197.5 423.5C164.639 419.518 191.432 360.023 161 347C126.393 332.19 111.355 393.151 74 388.5Z" fill="#7BF596"/>
<path d="M67 512C33.3718 508.032 0 452.5 0 452.5V639.5H360L359 342C359 342 236.809 505.319 167.5 453.5C160.084 447.955 150 437.5 150 437.5C112.56 415.244 110.256 517.105 67 512Z" fill="#88FFA4"/>
<path d="M59 431C16.24 437.34 0.5 537.5 0.5 537.5V639.5H359V434C359 434 314.797 586.403 245 583.5C191.198 581.262 190.283 454.466 147 486.5C131.807 497.744 136.584 517.072 120.5 527C82.6131 550.387 103.042 424.47 59 431Z" fill="#78E7B7"/>
</svg>
