<svg width="360" height="640" viewBox="0 0 360 640" fill="none" xmlns="http://www.w3.org/2000/svg">
<g clip-path="url(#clip0)">
<rect width="360" height="640" fill="#F3ABB6"/>
<path d="M113.5 351.5C52.6013 343.091 6 236.5 6 236.5V554H355.5V323.5C355.5 323.5 339.109 289.79 264 283.5C177.314 276.24 199.672 363.399 113.5 351.5Z" fill="#F291A0"/>
<path d="M226.5 384C309.455 394.792 360 219 360 219L357 553L2.5 557V384C2.5 384 67.5178 298.143 124.5 303C175.182 307.32 176.059 377.438 226.5 384Z" fill="#FAADAD"/>
<circle cx="269.5" cy="157.5" r="61.5" fill="#6D0011" fill-opacity="0.5"/>
<path d="M98.5 397.5C34.3704 402.743 1.5 338 1.5 338V636H362.5L354.5 455.5C354.5 455.5 282.315 340.017 215.5 351.5C160.369 360.975 154.253 392.942 98.5 397.5Z" fill="#FCA1AE"/>
</g>
<defs>
<clipPath id="clip0">
<rect width="360" height="640" fill="white"/>
</clipPath>
</defs>
</svg>
