<?xml version="1.0" encoding="UTF-8" standalone="no"?>
<!DOCTYPE svg PUBLIC "-//W3C//DTD SVG 1.1//EN" "http://www.w3.org/Graphics/SVG/1.1/DTD/svg11.dtd">
<svg width="100%" height="100%" viewBox="0 0 496 495" version="1.1" xmlns="http://www.w3.org/2000/svg" xmlns:xlink="http://www.w3.org/1999/xlink" xml:space="preserve" xmlns:serif="http://www.serif.com/" style="fill-rule:evenodd;clip-rule:evenodd;stroke-linejoin:round;stroke-miterlimit:2;">
    <g transform="matrix(1,0,0,1,-2.49979,-2.5)">
        <g transform="matrix(0.490167,0,0,0.490167,82.089,9.93982)">
            <g transform="matrix(0.421782,0,0,0.421782,-226.292,-267.737)">
                <path d="M2468.43,1795.93C2468.43,1177.92 1966.69,676.182 1348.69,676.182C730.682,676.182 228.94,1177.92 228.94,1795.93C228.94,2413.93 730.682,2915.67 1348.69,2915.67C1966.69,2915.67 2468.43,2413.93 2468.43,1795.93Z" style="fill:rgb(93,17,0);stroke:rgb(255,176,0);stroke-width:154.78px;"/>
                <path d="M2468.43,1795.93C2468.43,1177.92 1966.69,676.182 1348.69,676.182C730.682,676.182 228.94,1177.92 228.94,1795.93C228.94,2413.93 730.682,2915.67 1348.69,2915.67C1966.69,2915.67 2468.43,2413.93 2468.43,1795.93ZM2387.9,1795.93C2387.9,2369.49 1922.25,2835.14 1348.69,2835.14C775.128,2835.14 309.471,2369.49 309.471,1795.93C309.471,1222.37 775.128,756.712 1348.69,756.712C1922.25,756.712 2387.9,1222.37 2387.9,1795.93Z" style="fill:rgb(93,17,0);stroke:rgb(255,176,0);stroke-width:9.67px;"/>
            </g>
        </g>
        <g transform="matrix(0.490167,0,0,0.490167,82.089,9.93982)">
            <g transform="matrix(6.04794,0,0,6.04794,-2261.89,-129.432)">
                <path d="M478.691,125.789C478.691,117.652 476.297,108.309 471.512,97.762C467.207,88.328 461.879,79.652 455.488,71.789C455.328,71.59 451.816,66.836 444.961,57.516C444.457,56.848 443.609,55.895 442.402,54.687C441.539,53.805 441.09,53.23 441.09,52.922L441.09,43.602C441.09,42.664 441.324,42.195 441.773,42.195C442.008,42.195 442.297,42.34 442.656,42.629L459.594,57.047C460.637,57.91 461.16,58.594 461.16,59.043C461.16,59.332 460.891,59.477 460.367,59.477C459.629,59.477 458.371,59.133 456.625,58.449C455.309,57.965 454.66,57.875 454.66,58.16C454.66,58.324 454.895,58.629 455.348,59.098C462.762,66.516 468.938,75.297 473.852,85.469C479.41,96.953 482.203,108.113 482.203,118.965C482.203,129.641 479.699,138.496 474.73,145.516C470.844,150.988 466.434,154.875 461.449,157.145C459.504,158.062 456.137,159.141 451.387,160.367C446.652,161.609 443.141,162.328 440.891,162.527C439.992,162.617 439.543,162.543 439.543,162.273C439.543,162.039 439.973,161.645 440.855,161.051C445.176,158.621 452.25,154.371 462.043,148.359C473.129,141.16 478.691,133.637 478.691,125.789Z" style="fill:rgb(255,176,0);fill-rule:nonzero;"/>
                <path d="M456.301,114.375C454.645,109.355 453.527,104.672 452.934,100.301C452.719,98.609 452.555,97.582 452.449,97.187C452.215,96.27 451.781,95.367 451.133,94.504C451.582,92.992 452.305,90.902 453.277,88.203C453.602,87.41 453.906,87.035 454.156,87.035C454.391,87.035 454.789,87.41 455.383,88.203C457.957,91.785 460.117,94.988 461.863,97.816C462.582,98.984 462.941,99.812 462.941,100.301C462.941,100.66 462.781,100.84 462.457,100.84C461.809,100.84 460.637,100.301 458.945,99.238C458.785,99.238 458.656,99.344 458.551,99.578C459.145,101.687 460.078,104.602 461.375,108.309C464.309,116.645 465.785,122.711 465.785,126.527C465.785,130.324 465.211,133.652 464.074,136.48C462.188,141.305 458.91,143.715 454.266,143.715C449.316,143.715 445.41,141.555 442.547,137.273C440.82,134.699 439.289,130.844 437.957,125.699C437.383,130.883 435.727,135.328 433.027,139.07C429.715,143.609 425.465,145.875 420.301,145.875C414.594,145.875 410.617,143.156 408.328,137.703C407.07,134.645 406.441,131.062 406.441,126.922C406.441,121.449 407.09,116.355 408.383,111.641C408.727,110.363 408.906,109.516 408.906,109.102C408.906,108.867 408.852,108.758 408.727,108.758C408.492,108.758 407.969,109.391 407.16,110.648C405.883,112.648 404.551,116.68 403.145,122.766C401.328,130.613 400.141,135.344 399.582,136.965C398.844,139.215 397.781,141.035 396.414,142.402C395.316,143.535 394.344,144.113 393.535,144.113C389.898,144.113 387.07,141.789 385.094,137.164C383.473,133.328 382.66,128.687 382.66,123.25C382.66,119.453 383.238,115.312 384.406,110.848C384.68,109.84 384.93,109.102 385.199,108.598C385.543,107.984 385.793,107.914 385.922,108.363C386.047,108.887 385.992,109.805 385.723,111.137C385.074,114.539 384.75,117.633 384.75,120.477C384.75,131.477 387.055,136.984 391.68,136.984C393.66,136.984 395.316,135.488 396.613,132.539C397.422,130.684 398.41,127.137 399.582,121.937C400.934,116.176 402.066,111.965 403.004,109.281C404.082,106.223 405.414,103.504 407.016,101.129C408.727,98.465 410.238,97.133 411.496,97.133C412.543,97.133 413.063,98.23 413.063,100.445C413.063,102.281 412.543,105.969 411.496,111.551C410.453,117.148 409.949,120.891 409.949,122.816C409.949,126.977 410.813,130.234 412.559,132.574C414.289,134.934 416.719,136.102 419.797,136.102C425.395,136.102 429.605,134.336 432.395,130.828C434.609,128.055 435.727,124.637 435.727,120.566C435.727,116.66 435.383,112.883 434.734,109.246C434.285,106.672 433.656,104.223 432.883,101.918C432.234,99.902 431.91,98.949 431.91,99.074C431.91,96.844 432.629,93.785 434.105,89.895C434.43,89.051 434.684,88.637 434.879,88.637C435.113,88.637 435.473,89.195 435.996,90.293C438.082,94.629 439.723,101.273 440.93,110.219C442.063,118.586 443.699,124.562 445.844,128.164C447.965,131.766 451.207,133.562 455.578,133.562C459.215,133.562 461.609,132.23 462.742,129.605C462.742,128.687 461.988,126.742 460.457,123.734C458.496,119.937 457.129,116.805 456.301,114.375Z" style="fill:rgb(255,176,0);fill-rule:nonzero;"/>
                <path d="M420.949,61.816C420.805,62.645 420.605,63.094 420.355,63.148C420.031,63.219 419.867,62.75 419.867,61.707C419.867,60.809 419.707,59.672 419.383,58.324C418.355,53.879 414.848,50.027 408.816,46.785C408.438,46.57 408.313,46.227 408.438,45.777L409.266,42.914C409.355,42.664 409.555,42.629 409.895,42.773C415.656,45.293 419.258,49.703 420.715,56C421.164,57.98 421.234,59.906 420.949,61.816Z" style="fill:rgb(255,176,0);fill-rule:nonzero;"/>
                <path d="M437.203,79.258C437.203,80.535 436.914,81.852 436.355,83.219C435.617,84.98 434.664,85.863 433.477,85.863C431.621,85.863 430.309,84.586 429.535,82.047C428.652,85.305 427.051,86.945 424.691,86.945C423.828,86.945 423.055,86.492 422.406,85.613C421.648,84.566 421.289,83.199 421.289,81.508L421.289,77.512C421.289,77.187 421.055,76.953 420.625,76.828C420.176,76.703 419.957,76.359 419.957,75.801C419.957,74.918 420.316,74.055 421.074,73.211C421.758,72.473 422.281,72.094 422.641,72.094C423.109,72.094 423.344,72.977 423.344,74.723C423.344,75.641 423.254,76.395 423.109,77.027C422.965,77.637 422.891,78.176 422.891,78.629C422.891,79.582 423.07,80.5 423.469,81.363C423.938,82.391 424.492,82.895 425.18,82.895C426.059,82.895 426.887,82.48 427.66,81.687C428.418,80.895 428.813,79.961 428.813,78.879C428.813,78.27 428.633,77.207 428.273,75.711C427.914,74.199 427.734,73.281 427.734,72.922C427.734,72.598 427.895,72.074 428.219,71.375C428.543,70.691 428.777,70.328 428.941,70.328C429.246,70.328 429.625,71.32 430.094,73.316C430.559,75.297 430.813,76.754 430.813,77.711C430.813,80.445 431.855,81.812 433.98,81.812C434.879,81.812 435.457,81.344 435.691,80.445C433.855,77.242 432.953,74.812 432.953,73.121C432.953,72.129 433.188,71.266 433.676,70.527C434.016,70.004 434.23,69.719 434.359,69.699C434.504,69.699 434.594,70.023 434.664,70.672C434.754,71.59 434.898,72.328 435.098,72.922C435.133,72.977 435.563,74.109 436.41,76.289C436.934,77.582 437.203,78.574 437.203,79.258Z" style="fill:rgb(255,176,0);fill-rule:nonzero;"/>
                <path d="M407.285,70.672C416.32,67.379 425.934,63.887 436.086,60.16C436.59,59.98 436.914,59.906 437.004,59.98C437.129,60.07 437.113,60.34 436.914,60.809C436.32,62.23 435.852,63.094 435.492,63.398C426.961,66.461 417.008,70.348 405.629,75.082C405.973,73.73 406.531,72.273 407.285,70.672Z" style="fill:rgb(255,176,0);fill-rule:nonzero;"/>
                <path d="M404.496,146.184C404.496,147.387 403.992,148.738 403.02,150.27C402.012,151.852 400.699,153.219 399.113,154.336C398.484,154.785 398.105,155.02 397.98,155.02C397.961,155.02 397.961,155 397.961,154.984C397.961,154.875 398.23,154.551 398.754,153.957C401.383,151.094 402.695,149.187 402.695,148.234C402.695,147.316 402.266,146.867 401.418,146.867C400.969,146.867 400.535,146.992 400.156,147.242C399.887,147.422 399.707,147.531 399.637,147.551C399.602,147.516 399.527,147.477 399.457,147.461C399.492,147.352 399.527,147.117 399.602,146.723C400.031,144.742 401.004,143.77 402.551,143.77C403.848,143.77 404.496,144.578 404.496,146.184Z" style="fill:rgb(255,176,0);fill-rule:nonzero;"/>
                <path d="M449.371,75.711C449.371,76.918 448.867,78.27 447.895,79.797C446.887,81.383 445.57,82.75 443.988,83.867C443.359,84.316 442.98,84.551 442.855,84.551C442.836,84.551 442.836,84.531 442.836,84.516C442.836,84.406 443.105,84.082 443.629,83.488C446.258,80.625 447.57,78.719 447.57,77.766C447.57,76.844 447.137,76.395 446.293,76.395C445.844,76.395 445.41,76.523 445.031,76.773C444.762,76.953 444.582,77.062 444.512,77.078C444.473,77.043 444.402,77.008 444.328,76.988C444.367,76.883 444.402,76.648 444.473,76.25C444.906,74.273 445.879,73.301 447.426,73.301C448.723,73.301 449.371,74.109 449.371,75.711Z" style="fill:rgb(255,176,0);fill-rule:nonzero;"/>
                <path d="M417.078,113.855C418.391,113.855 419.563,114.629 420.605,116.176C421.648,117.742 422.387,119.777 422.801,122.277C422.855,122.531 422.875,122.691 422.875,122.727C422.93,122.801 422.965,122.801 422.98,122.727C423,122.691 423.07,122.531 423.16,122.277C423.379,120.785 423.883,118.535 424.711,115.562C425.594,113.441 426.563,112.379 427.625,112.379C428.164,112.379 428.707,112.738 429.227,113.457C429.715,114.086 429.949,114.609 429.949,115.004C429.949,115.312 429.859,115.707 429.695,116.211C429.48,116.859 429.246,117.203 428.957,117.203C428.832,117.203 428.578,116.949 428.184,116.445C427.789,115.941 427.375,115.691 426.961,115.691C426.023,115.691 425.141,117.902 424.352,122.312C424.008,124.238 423.613,125.59 423.199,126.398C422.891,126.941 422.641,127.211 422.426,127.211C422.227,127.211 422.137,126.957 422.137,126.473C422.137,125.699 421.703,124.187 420.805,121.953C419.922,119.723 419.273,118.605 418.914,118.605C418.645,118.605 418.48,118.676 418.41,118.84C418.34,119 418.141,119.09 417.781,119.09C417.383,119.09 416.863,118.785 416.215,118.211C415.582,117.617 415.262,117.148 415.262,116.805C415.262,116.645 415.531,116.105 416.051,115.203C416.594,114.305 416.934,113.855 417.078,113.855Z" style="fill:rgb(255,176,0);fill-rule:nonzero;"/>
                <path d="M439.883,147.91C439.883,149.117 439.379,150.465 438.406,151.996C437.398,153.578 436.086,154.949 434.504,156.062C433.871,156.516 433.492,156.746 433.367,156.746C433.352,156.746 433.352,156.73 433.352,156.711C433.352,156.605 433.621,156.281 434.141,155.687C436.77,152.824 438.082,150.914 438.082,149.961C438.082,149.043 437.652,148.594 436.805,148.594C436.355,148.594 435.926,148.719 435.547,148.973C435.277,149.152 435.098,149.258 435.023,149.277C434.988,149.242 434.914,149.207 434.844,149.187C434.879,149.078 434.914,148.844 434.988,148.449C435.422,146.469 436.391,145.496 437.941,145.496C439.234,145.496 439.883,146.309 439.883,147.91Z" style="fill:rgb(255,176,0);fill-rule:nonzero;"/>
                <path d="M416.07,149.402C416.953,149.402 417.727,149.926 418.43,150.953C419.129,151.996 419.617,153.344 419.887,155.02C419.922,155.199 419.941,155.309 419.941,155.324C419.977,155.379 419.992,155.379 420.012,155.324C420.031,155.309 420.066,155.199 420.121,155.02C420.266,154.031 420.605,152.535 421.164,150.555C421.758,149.133 422.406,148.434 423.109,148.434C423.469,148.434 423.828,148.664 424.188,149.152C424.492,149.566 424.656,149.906 424.656,150.176C424.656,150.375 424.602,150.645 424.477,150.969C424.352,151.402 424.188,151.637 423.988,151.637C423.918,151.637 423.738,151.457 423.484,151.133C423.215,150.789 422.945,150.629 422.656,150.629C422.027,150.629 421.453,152.105 420.93,155.055C420.695,156.332 420.426,157.234 420.156,157.773C419.941,158.133 419.777,158.312 419.633,158.312C419.508,158.312 419.453,158.133 419.453,157.809C419.453,157.305 419.148,156.297 418.555,154.805C417.961,153.309 417.547,152.57 417.293,152.57C417.113,152.57 417.008,152.625 416.969,152.734C416.914,152.84 416.773,152.895 416.539,152.895C416.285,152.895 415.926,152.699 415.492,152.301C415.078,151.906 414.863,151.602 414.863,151.367C414.863,151.258 415.043,150.898 415.402,150.305C415.766,149.691 415.98,149.402 416.07,149.402Z" style="fill:rgb(255,176,0);fill-rule:nonzero;"/>
                <path d="M408.887,91.031C408.367,89.48 407.34,88.293 405.809,87.449C405.648,88.871 405.379,90.004 404.98,90.852C405.18,90.922 406.402,91.246 408.637,91.785C408.762,91.82 408.871,91.82 408.926,91.77C409.031,91.676 409.016,91.445 408.887,91.031ZM403.793,90.488C404.082,89.77 404.172,88.961 404.047,88.078C403.922,87.125 403.543,86.602 402.949,86.547C402.625,86.512 402.121,86.766 401.473,87.285C400.805,87.824 400.465,88.258 400.43,88.562C400.355,89.285 401.473,89.934 403.793,90.488ZM400.43,85.937C400.141,84.281 400.355,83.145 401.094,82.551C401.672,82.082 402.301,81.887 403.004,81.957C403.688,82.031 404.426,82.355 405.254,82.91C408.133,84.91 409.949,87.176 410.707,89.68C410.762,89.84 410.777,90.059 410.762,90.328C410.672,91.156 410.309,92.074 409.68,93.117C409.051,94.145 408.492,94.629 407.988,94.574C407.809,94.559 406.402,94.27 403.777,93.711C402.227,95.441 400.391,96.934 398.23,98.195C395.695,99.668 393.406,100.75 391.34,101.434C390.906,101.594 388.547,102.227 384.246,103.305C383.563,103.484 383.113,103.559 382.879,103.523C382.789,103.523 382.734,103.484 382.734,103.434C382.754,103.305 383.164,103.035 383.957,102.621C387.18,101.145 390.383,99.687 393.605,98.211C397.297,96.539 400.176,94.883 402.246,93.262C399.906,92.469 398.809,91.266 398.988,89.625C399.133,88.277 399.602,87.051 400.43,85.937Z" style="fill:rgb(255,176,0);fill-rule:nonzero;"/>
                <path d="M393.406,55.246C394.867,55.246 396.18,56.109 397.332,57.836C398.504,59.566 399.313,61.816 399.781,64.605C399.832,64.895 399.852,65.055 399.852,65.109C399.906,65.199 399.941,65.199 399.977,65.109C399.996,65.055 400.066,64.895 400.176,64.605C400.41,62.934 400.969,60.449 401.887,57.137C402.875,54.758 403.957,53.59 405.125,53.59C405.719,53.59 406.313,53.984 406.926,54.797C407.449,55.496 407.699,56.074 407.699,56.504C407.699,56.848 407.609,57.297 407.43,57.836C407.195,58.559 406.926,58.937 406.602,58.937C406.477,58.937 406.188,58.648 405.758,58.09C405.305,57.531 404.855,57.262 404.387,57.262C403.344,57.262 402.371,59.711 401.488,64.641C401.113,66.785 400.68,68.277 400.211,69.176C399.871,69.773 399.582,70.078 399.348,70.078C399.133,70.078 399.043,69.789 399.043,69.25C399.043,68.387 398.539,66.73 397.547,64.246C396.559,61.762 395.855,60.52 395.441,60.52C395.152,60.52 394.973,60.609 394.902,60.789C394.813,60.969 394.578,61.059 394.199,61.059C393.75,61.059 393.176,60.734 392.453,60.07C391.734,59.422 391.391,58.898 391.391,58.523C391.391,58.34 391.68,57.746 392.273,56.738C392.887,55.73 393.266,55.246 393.406,55.246Z" style="fill:rgb(255,176,0);fill-rule:nonzero;"/>
                <path d="M432.809,44.984C432.809,46.316 432.254,47.828 431.172,49.523C430.039,51.285 428.598,52.797 426.832,54.039C426.133,54.543 425.719,54.797 425.594,54.797C425.555,54.797 425.555,54.777 425.555,54.742C425.555,54.652 425.844,54.273 426.438,53.625C429.355,50.441 430.813,48.316 430.813,47.254C430.813,46.246 430.344,45.742 429.406,45.742C428.887,45.742 428.418,45.887 428.004,46.156C427.699,46.371 427.5,46.48 427.43,46.516C427.375,46.461 427.301,46.426 427.23,46.391C427.246,46.301 427.301,46.012 427.375,45.578C427.844,43.383 428.941,42.305 430.648,42.305C432.09,42.305 432.809,43.187 432.809,44.984Z" style="fill:rgb(255,176,0);fill-rule:nonzero;"/>
                <path d="M398.27,79.348C398.27,79.961 397.492,81.328 395.965,83.488C394.219,85.898 392.563,87.684 390.996,88.797C389.988,89.5 386.656,90.617 380.988,92.109C379.98,92.363 379.477,92.453 379.477,92.398C379.547,92.289 379.891,92 380.52,91.516C381.258,90.941 383.273,89.805 386.566,88.059C389.734,86.387 391.59,85.305 392.129,84.836C392.219,84.73 392.273,84.641 392.273,84.551C392.273,83.793 389.449,83.434 383.832,83.434C383.813,83.434 382.734,83.469 380.594,83.559C379.566,83.613 379.063,83.543 379.063,83.363C379.063,83.219 379.188,82.93 379.441,82.48L381.438,79.094C382.031,78.105 383.094,77.492 384.641,77.223C385.199,77.133 386.496,77.098 388.547,77.098C395.027,77.098 398.27,77.836 398.27,79.348Z" style="fill:rgb(255,176,0);fill-rule:nonzero;"/>
                <path d="M425.539,96.16C425.539,97.367 425.035,98.715 424.063,100.246C423.055,101.828 421.738,103.199 420.156,104.312C419.527,104.766 419.148,104.996 419.023,104.996C419.004,104.996 419.004,104.98 419.004,104.961C419.004,104.855 419.273,104.531 419.797,103.937C422.426,101.074 423.738,99.164 423.738,98.211C423.738,97.293 423.305,96.844 422.461,96.844C422.012,96.844 421.578,96.969 421.199,97.223C420.93,97.402 420.75,97.508 420.68,97.527C420.641,97.492 420.57,97.457 420.496,97.437C420.535,97.328 420.57,97.094 420.641,96.699C421.074,94.719 422.047,93.746 423.594,93.746C424.891,93.746 425.539,94.559 425.539,96.16Z" style="fill:rgb(255,176,0);fill-rule:nonzero;"/>
            </g>
        </g>
    </g>
</svg>
