<svg width="102" height="104" viewBox="0 0 102 104" fill="none" xmlns="http://www.w3.org/2000/svg">
<path d="M72.7453 80.9048C52.965 80.9048 36.9292 64.8716 36.9292 45.0913C36.9292 25.3101 52.965 9.27428 72.7453 9.27428C75.9025 9.27428 78.9484 9.72407 81.8655 10.4914C73.4082 4.41098 63.0648 0.790039 51.854 0.790039C23.3998 0.790039 0.333496 23.8572 0.333496 52.3106C0.333496 80.7656 23.3998 103.829 51.854 103.829C75.3353 103.829 95.1095 88.1084 101.317 66.6247C94.7798 75.2846 84.432 80.9048 72.7453 80.9048Z" fill="#F8A62C"/>
<path d="M82.3817 22.2737L88.7066 33.4776L101.317 36.0311L92.6164 45.5098L94.084 58.2918L82.3817 52.9465L70.6785 58.2918L72.1462 45.5098L63.4453 36.0311L76.056 33.4776L82.3817 22.2737Z" fill="#B4E6F5"/>
</svg>
