<svg width="110" height="109" viewBox="0 0 110 109" fill="none" xmlns="http://www.w3.org/2000/svg">
<path d="M80.8284 53.9965C80.8284 68.3542 69.187 79.9965 54.8259 79.9965C40.4657 79.9965 28.8242 68.3542 28.8242 53.9965C28.8242 39.6328 40.4657 27.9922 54.8259 27.9922C69.187 27.9922 80.8284 39.6328 80.8284 53.9965Z" fill="#F8A62C"/>
<path d="M54.8271 20.9452C53.0166 20.9452 51.5498 19.475 51.5498 17.6654V3.40603C51.5498 1.59643 53.0166 0.126114 54.8271 0.126114C56.6376 0.126114 58.1044 1.59643 58.1044 3.40603V17.6654C58.1044 19.475 56.6376 20.9452 54.8271 20.9452Z" fill="#F8A62C"/>
<path d="M54.8271 108.581C53.0166 108.581 51.5498 107.114 51.5498 105.304V91.0438C51.5498 89.2342 53.0166 87.7673 54.8271 87.7673C56.6376 87.7673 58.1044 89.2342 58.1044 91.0438V105.304C58.1044 107.114 56.6376 108.581 54.8271 108.581Z" fill="#F8A62C"/>
<path d="M105.776 57.6332H91.5165C89.7061 57.6332 88.2393 56.1629 88.2393 54.3533C88.2393 52.5437 89.7061 51.0734 91.5165 51.0734H105.776C107.586 51.0734 109.053 52.5437 109.053 54.3533C109.053 56.1629 107.586 57.6332 105.776 57.6332Z" fill="#F8A62C"/>
<path d="M3.8769 57.6332H18.1362C19.9467 57.6332 21.4135 56.1629 21.4135 54.3533C21.4135 52.5437 19.9467 51.0734 18.1362 51.0734H3.8769C2.06643 51.0734 0.599609 52.5437 0.599609 54.3533C0.599609 56.1629 2.06643 57.6332 3.8769 57.6332Z" fill="#F8A62C"/>
<path d="M28.8838 31.6896C28.0451 31.6896 27.2064 31.3677 26.5661 30.7326L16.4828 20.6406C15.203 19.3617 15.203 17.2912 16.4828 16.0123C17.7634 14.7334 19.8366 14.7334 21.1173 16.0123L31.2006 26.0956C32.4812 27.3745 32.4812 29.445 31.2006 30.7326C30.5602 31.3677 29.7224 31.6896 28.8838 31.6896Z" fill="#F8A62C"/>
<path d="M90.8529 93.659C90.0142 93.659 89.1755 93.3388 88.5361 92.6985L78.4536 82.6153C77.173 81.3355 77.173 79.2606 78.4536 77.9817C79.7334 76.701 81.8075 76.701 83.0872 77.9817L93.1697 88.0649C94.4503 89.3447 94.4503 91.4196 93.1697 92.6985C92.5302 93.3388 91.6915 93.659 90.8529 93.659Z" fill="#F8A62C"/>
<path d="M18.8004 93.659C17.9618 93.659 17.1231 93.3388 16.4828 92.6985C15.203 91.4196 15.203 89.3438 16.4828 88.0649L26.5661 77.9817C27.8467 76.701 29.9208 76.701 31.2006 77.9817C32.4812 79.2606 32.4812 81.3364 31.2006 82.6153L21.1173 92.6985C20.4769 93.3388 19.6383 93.659 18.8004 93.659Z" fill="#F8A62C"/>
<path d="M80.7704 31.6896C79.9318 31.6896 79.0931 31.3677 78.4536 30.7326C77.173 29.445 77.173 27.3745 78.4536 26.0956L88.5361 16.0123C89.8141 14.7334 91.8899 14.7334 93.1697 16.0123C94.4503 17.2912 94.4503 19.3617 93.1697 20.6406L83.0872 30.7326C82.4487 31.3677 81.6091 31.6896 80.7704 31.6896Z" fill="#F8A62C"/>
</svg>
