<svg width="143" height="112" viewBox="0 0 143 112" fill="none" xmlns="http://www.w3.org/2000/svg">
<path d="M88.1237 32.2552C88.1124 32.2552 88.1011 32.2552 88.0906 32.2552C88.095 32.0377 88.1237 31.8202 88.1237 31.6027C88.1237 14.1766 74.0018 0.0564957 56.5818 0.0564957C39.1618 0.0564957 25.04 14.1766 25.04 31.6027C25.04 31.6201 25.0434 31.6375 25.0434 31.6636C11.3784 32.2987 0.486816 43.5391 0.486816 57.3634C0.486816 71.5931 12.0213 83.1276 26.2501 83.1276H88.1237C102.172 83.1276 113.56 71.7393 113.56 57.694C113.56 43.6435 102.172 32.2552 88.1237 32.2552Z" fill="#8DD9EE"/>
<path d="M116.943 60.1821C116.932 60.1821 116.921 60.1909 116.91 60.1909C116.915 59.9647 116.943 59.7558 116.943 59.5296C116.943 42.1122 102.822 27.9921 85.4016 27.9921C67.9816 27.9921 53.8598 42.1122 53.8598 59.5296C53.8598 59.5557 53.8632 59.5732 53.8632 59.5906C40.199 60.2257 29.3066 71.4747 29.3066 85.2964C29.3066 99.5253 40.8411 111.06 55.0699 111.06H116.943C130.991 111.06 142.38 99.6715 142.38 85.6236C142.38 71.5749 130.991 60.1821 116.943 60.1821Z" fill="#62C6EF"/>
</svg>
