<svg width="114" height="112" viewBox="0 0 114 112" fill="none" xmlns="http://www.w3.org/2000/svg">
<path d="M87.9435 32.5934C87.9322 32.5934 87.9209 32.5951 87.9104 32.5951C87.9148 32.375 87.9435 32.161 87.9435 31.94C87.9435 14.52 73.8217 0.398132 56.4016 0.398132C38.9816 0.398132 24.8598 14.52 24.8598 31.94C24.8598 31.96 24.8632 31.98 24.8632 32.0009C11.199 32.6351 0.306641 43.8816 0.306641 57.7033C0.306641 71.9322 11.8411 83.4666 26.0699 83.4666H87.9435C101.991 83.4666 113.38 72.0783 113.38 58.0304C113.38 43.9817 101.991 32.5934 87.9435 32.5934Z" fill="#62C6EF"/>
<path d="M19.7206 69.3344C18.5139 69.3344 17.5352 68.3565 17.5352 67.1489V52.6069C17.5352 51.3993 18.5139 50.4214 19.7206 50.4214C20.9264 50.4214 21.9052 51.3993 21.9052 52.6069V67.1489C21.9052 68.3565 20.9264 69.3344 19.7206 69.3344Z" fill="#B4E6F5"/>
<path d="M19.7206 111.095C18.5139 111.095 17.5352 110.117 17.5352 108.91V79.0548C17.5352 77.8473 18.5139 76.8694 19.7206 76.8694C20.9264 76.8694 21.9052 77.8473 21.9052 79.0548V108.91C21.9052 110.117 20.9264 111.095 19.7206 111.095Z" fill="#B4E6F5"/>
<path d="M38.2812 61.0685C37.0754 61.0685 36.0967 60.0914 36.0967 58.8839V37.6794C36.0967 36.4718 37.0754 35.4948 38.2812 35.4948C39.4879 35.4948 40.4667 36.4718 40.4667 37.6794V58.8839C40.4667 60.0914 39.4879 61.0685 38.2812 61.0685Z" fill="#B4E6F5"/>
<path d="M38.2812 85.4276C37.0754 85.4276 36.0967 84.4506 36.0967 83.243V69.4274C36.0967 68.2198 37.0754 67.2428 38.2812 67.2428C39.4879 67.2428 40.4667 68.2198 40.4667 69.4274V83.243C40.4667 84.4506 39.4879 85.4276 38.2812 85.4276Z" fill="#B4E6F5"/>
<path d="M38.2812 111.095C37.0754 111.095 36.0967 110.117 36.0967 108.91V97.8642C36.0967 96.6567 37.0754 95.6796 38.2812 95.6796C39.4879 95.6796 40.4667 96.6567 40.4667 97.8642V108.91C40.4667 110.117 39.4879 111.095 38.2812 111.095Z" fill="#B4E6F5"/>
<path d="M56.8428 111.095C55.6361 111.095 54.6582 110.117 54.6582 108.91V79.0548C54.6582 77.8473 55.6361 76.8694 56.8428 76.8694C58.0495 76.8694 59.0273 77.8473 59.0273 79.0548V108.91C59.0273 110.117 58.0495 111.095 56.8428 111.095Z" fill="#B4E6F5"/>
<path d="M75.4048 111.095C74.1981 111.095 73.2202 110.117 73.2202 108.91V97.8642C73.2202 96.6567 74.1981 95.6796 75.4048 95.6796C76.6115 95.6796 77.5902 96.6567 77.5902 97.8642V108.91C77.5902 110.117 76.6115 111.095 75.4048 111.095Z" fill="#B4E6F5"/>
<path d="M93.9663 111.095C92.7596 111.095 91.7817 110.117 91.7817 108.91V86.0592C91.7817 84.8517 92.7596 83.8746 93.9663 83.8746C95.173 83.8746 96.1509 84.8517 96.1509 86.0592V108.91C96.1509 110.117 95.173 111.095 93.9663 111.095Z" fill="#B4E6F5"/>
<path d="M93.9663 73.486C92.7596 73.486 91.7817 72.509 91.7817 71.3014V60.9466C91.7817 59.7391 92.7596 58.7621 93.9663 58.7621C95.173 58.7621 96.1509 59.7391 96.1509 60.9466V71.3014C96.1509 72.509 95.173 73.486 93.9663 73.486Z" fill="#B4E6F5"/>
<path d="M75.4048 90.9495C74.1981 90.9495 73.2202 89.9725 73.2202 88.7649V44.2984C73.2202 43.0908 74.1981 42.1138 75.4048 42.1138C76.6115 42.1138 77.5902 43.0908 77.5902 44.2984V88.7649C77.5902 89.9725 76.6115 90.9495 75.4048 90.9495Z" fill="#B4E6F5"/>
<path d="M56.8428 68.6131C55.6361 68.6131 54.6582 67.6352 54.6582 66.4276V53.3272C54.6582 52.1197 55.6361 51.1426 56.8428 51.1426C58.0495 51.1426 59.0273 52.1197 59.0273 53.3272V66.4276C59.0273 67.6352 58.0495 68.6131 56.8428 68.6131Z" fill="#B4E6F5"/>
</svg>
