<svg width="494" height="494" viewBox="0 0 494 494" fill="none" xmlns="http://www.w3.org/2000/svg">
<path d="M311.079 92.3004H324.233V81.2471H321.47V89.5373H312.223L305.685 82.9992L311.547 77.1373L309.593 75.1832L301.777 82.9992L311.079 92.3004ZM401.7 182.921L411.001 192.223L418.817 184.407L416.863 182.453L411.001 188.315L404.463 181.777V172.531H412.753V169.767H401.7V182.921H401.7ZM401.7 311.079V324.233H412.753V321.47H404.463V312.224L411.001 305.685L416.863 311.547L418.817 309.593L411.001 301.777L401.7 311.079ZM311.079 401.7L301.777 411.001L309.593 418.817L311.547 416.863L305.685 411.001L312.223 404.463H321.47V412.753H324.233V401.7H311.079V401.7ZM182.921 401.7H169.767V412.753H172.531V404.463H181.777L188.315 411.001L182.453 416.863L184.407 418.817L192.223 411.001L182.921 401.7ZM92.3006 311.079L82.9991 301.777L75.1831 309.593L77.1372 311.547L82.9991 305.685L89.5372 312.224V321.47H81.247V324.233H92.3003V311.079H92.3006ZM92.3006 182.921V169.767H81.2473V172.531H89.5375V181.777L82.9994 188.315L77.1375 182.453L75.1834 184.407L82.9994 192.223L92.3006 182.921ZM182.921 92.3004L192.223 82.9989L184.407 75.1829L182.453 77.137L188.315 82.9989L181.777 89.537H172.531V81.2468H169.767V92.3001H182.921V92.3004ZM315.657 81.2471H326.996V84.0105H329.76V78.4837H316.802L307.639 69.321L303.731 73.2288L305.685 75.1829L307.639 73.2288L315.657 81.2471ZM412.753 178.343L420.771 186.361L418.817 188.315L420.771 190.269L424.679 186.361L415.517 177.198V164.24H409.99V167.004H412.753V178.343V178.343ZM412.753 315.657V326.996H409.99V329.76H415.517V316.802L424.679 307.639L420.771 303.731L418.817 305.685L420.771 307.639L412.753 315.657ZM315.657 412.753L307.639 420.771L305.685 418.817L303.731 420.771L307.639 424.679L316.802 415.517H329.76V409.99H326.996V412.753H315.657V412.753ZM178.343 412.753H167.004V409.99H164.241V415.517H177.199L186.361 424.679L190.269 420.771L188.315 418.817L186.361 420.771L178.343 412.753ZM81.247 315.657L73.229 307.639L75.1831 305.685L73.229 303.731L69.3212 307.639L78.4839 316.802V329.76H84.0107V326.996H81.2473V315.657H81.247ZM81.247 178.343V167.004H84.0104V164.24H78.4836V177.198L69.3209 186.361L73.2287 190.269L75.1828 188.315L73.2287 186.361L81.247 178.343ZM178.343 81.2471L186.361 73.2291L188.315 75.1832L190.269 73.2291L186.361 69.3213L177.199 78.484H164.241V84.0108H167.004V81.2474H178.343V81.2471ZM332.523 97.8272V95.0638H329.76V86.7736H326.996V97.8269H332.523V97.8272ZM201.993 81.0451L200.039 79.0911L198.085 81.0451L192.223 75.1832L190.269 77.1373L198.085 84.9533L201.993 81.0451ZM97.8271 161.477H95.0637V164.24H86.7735V167.004H97.8268V161.477H97.8271ZM81.045 292.007L79.0909 293.961L81.045 295.915L75.1831 301.777L77.1372 303.731L84.9532 295.915L81.045 292.007ZM161.477 396.173V398.937H164.241V407.227H167.004V396.173H161.477V396.173ZM292.007 412.955L293.962 414.909L295.916 412.955L301.778 418.817L303.732 416.863L295.916 409.047L292.007 412.955ZM396.173 332.523H398.936V329.76H407.227V326.996H396.173V332.523H396.173ZM412.955 201.993L414.909 200.039L412.955 198.085L418.817 192.223L416.863 190.269L409.047 198.085L412.955 201.993ZM396.173 167.004H407.226V164.24H398.936V161.477H396.173V167.004H396.173ZM295.915 84.953L303.731 77.137L301.777 75.1829L295.915 81.0448L293.961 79.0908L292.007 81.0448L295.915 84.953ZM167.004 97.8272V86.7739H164.24V95.0641H161.477V97.8275H167.004V97.8272ZM84.9532 198.085L77.1372 190.269L75.1831 192.223L81.045 198.085L79.0909 200.039L81.045 201.993L84.9532 198.085ZM97.8271 326.996H86.7738V329.76H95.064V332.523H97.8273V326.996H97.8271ZM198.085 409.047L190.269 416.863L192.223 418.817L198.085 412.955L200.039 414.909L201.993 412.955L198.085 409.047ZM326.996 396.173V407.226H329.76V398.936H332.523V396.173H326.996V396.173ZM409.047 295.915L416.863 303.731L418.817 301.777L412.955 295.915L414.909 293.961L412.955 292.007L409.047 295.915ZM412.753 81.2471H332.523V67.4304H346.34V75.7206H335.286V72.9572H343.576V70.1938H335.286L335.193 78.5853L415.504 78.4962L415.415 158.807L423.806 158.714V150.424H421.043V158.714H418.28V147.66H426.57V161.477H412.753V81.2471V81.2471ZM481.41 247L424.679 190.269L434.449 180.499L444.219 190.269L438.357 196.131L430.541 188.315L432.495 186.361L438.357 192.223L440.311 190.269L434.45 184.407L428.45 190.275L485.301 247L428.45 303.725L434.45 309.593L440.311 303.731L438.357 301.777L432.495 307.639L430.541 305.685L438.357 297.869L444.219 303.73L434.449 313.501L424.679 303.73L481.41 247ZM412.753 412.753V332.523H426.57V346.34H418.28V335.286H421.043V343.577H423.806V335.286L415.415 335.193L415.504 415.504L335.193 415.415L335.286 423.806H343.576V421.043H335.286V418.28H346.34V426.57H332.523V412.753H412.753ZM247 481.41L303.731 424.679L313.501 434.449L303.731 444.219L297.869 438.357L305.685 430.541L307.639 432.496L301.778 438.357L303.732 440.312L309.594 434.45L303.726 428.45L247 485.302L190.275 428.45L184.407 434.45L190.269 440.312L192.223 438.357L186.362 432.496L188.316 430.541L196.132 438.357L190.27 444.219L180.5 434.449L190.27 424.679L247 481.41ZM81.247 412.753H161.477V426.57H147.66V418.28H158.714V421.043H150.424V423.806H158.714L158.807 415.415L78.4961 415.504L78.5851 335.193L70.1937 335.286V343.577H72.9571V335.286H75.7205V346.34H67.4303V332.523H81.247V412.753V412.753ZM12.5898 247L69.3209 303.731L59.5509 313.501L49.7808 303.731L55.6427 297.869L63.4587 305.685L61.5046 307.639L55.6427 301.777L53.6887 303.731L59.5506 309.593L65.5498 303.725L8.69922 247L65.5504 190.275L59.5512 184.407L53.6892 190.269L55.6433 192.223L61.5052 186.361L63.4593 188.315L55.6433 196.131L49.7814 190.269L59.5515 180.499L69.3215 190.269L12.5898 247ZM81.247 81.2471V161.477H67.4303V147.66H75.7205V158.714H72.9571V150.424H70.1937V158.714L78.5851 158.807L78.4961 78.4962L158.807 78.5853L158.714 70.1938H150.424V72.9572H158.714V75.7206H147.66V67.4304H161.477V81.2471H81.247V81.2471ZM247 12.5899L190.269 69.321L180.499 59.551L190.269 49.7809L196.131 55.6428L188.315 63.4588L186.361 61.5047L192.223 55.6428L190.268 53.6888L184.407 59.5507L190.274 65.5499L247 8.69873L303.725 65.5499L309.593 59.5507L303.731 53.6888L301.777 55.6428L307.639 61.5047L305.684 63.4588L297.869 55.6428L303.73 49.7809L313.5 59.551L303.73 69.321L247 12.5899ZM61.9035 432.097H61.9961V432.004H61.9035V432.097ZM407.226 86.7739H324.232L324.167 84.0105H409.99V169.833L407.226 169.768V86.7739V86.7739ZM473.594 247L414.909 188.314L416.817 186.315L477.502 247L416.817 307.685L414.909 305.686L473.594 247ZM407.226 407.226V324.232L409.99 324.167V409.99H324.167L324.232 407.226H407.226V407.226ZM247 473.594L305.686 414.909L307.686 416.817L247 477.502L186.315 416.817L188.314 414.909L247 473.594ZM86.7738 407.226H169.768L169.833 409.99H84.0104V324.167L86.7738 324.232V407.226ZM20.4058 247L79.0915 305.686L77.1833 307.685L16.4979 247L77.1833 186.315L79.0915 188.314L20.4058 247ZM86.7738 86.7739V169.768L84.0104 169.833V84.0105H169.833L169.768 86.7739H86.7738ZM247 20.4059L188.314 79.0916L186.315 77.1834L247 16.498L307.686 77.1834L305.686 79.0916L247 20.4059ZM314.513 84.0105H321.516V86.7739H313.368L307.607 81.0126L309.561 79.0586L314.513 84.0105ZM409.99 179.488L414.942 184.439L412.988 186.394L407.226 180.632V172.484H409.99V179.488V179.488ZM409.99 314.512V321.516H407.226V313.368L412.988 307.606L414.942 309.561L409.99 314.512ZM314.513 409.99L309.561 414.942L307.607 412.988L313.368 407.226H321.516V409.99H314.513V409.99ZM179.487 409.99H172.484V407.226H180.632L186.393 412.988L184.439 414.942L179.487 409.99ZM84.0104 314.512L79.0585 309.561L81.0125 307.606L86.7738 313.368V321.516H84.0104V314.512ZM84.0104 179.488V172.484H86.7738V180.632L81.0125 186.394L79.0585 184.439L84.0104 179.488ZM179.487 84.0105L184.439 79.0586L186.393 81.0126L180.632 86.7739H172.484V84.0105H179.487ZM401.7 92.3004H335.287V100.591H343.577V97.8272H335.287V95.0638H346.34V103.354H332.523V89.5373H404.464V161.477H390.647V147.661H398.937V158.714H396.174V150.424H393.41V158.714H401.7V92.3004H401.7ZM465.778 247L418.817 200.039L412.955 205.901L418.817 211.762L420.771 209.808L414.909 203.946L416.863 201.992L424.679 209.808L418.817 215.67L409.047 205.9L418.817 196.13L469.687 246.999L418.817 297.869L409.047 288.099L418.817 278.329L424.679 284.19L416.863 292.006L414.909 290.052L420.771 284.19L418.817 282.236L412.955 288.098L418.817 293.96L465.778 247ZM401.7 401.7V335.286H393.41V343.577H396.173V335.286H398.936V346.34H390.646V332.523H404.463V404.463H332.523V390.647H346.34V398.937H335.286V396.173H343.576V393.41H335.286V401.7H401.7V401.7ZM247 465.778L293.962 418.817L288.1 412.955L282.238 418.817L284.192 420.771L290.054 414.909L292.008 416.863L284.192 424.679L278.33 418.817L288.1 409.047L297.87 418.817L247.001 469.687L196.132 418.817L205.902 409.047L215.672 418.817L209.81 424.679L201.994 416.863L203.948 414.909L209.81 420.771L211.764 418.817L205.902 412.955L200.04 418.817L247 465.778ZM92.3006 401.7H158.714V393.409H150.424V396.173H158.714V398.936H147.66V390.646H161.477V404.463H89.5372V332.523H103.354V346.339H95.0637V335.286H97.8271V343.576H100.59V335.286H92.3003V401.7H92.3006ZM28.2217 247L75.1831 293.961L81.045 288.099L75.1831 282.238L73.229 284.192L79.0909 290.054L77.1369 292.008L69.3209 284.192L75.1828 278.33L84.9529 288.1L75.1828 297.87L24.3139 247L75.1831 196.131L84.9532 205.901L75.1831 215.671L69.3212 209.809L77.1372 201.993L79.0912 203.947L73.2293 209.809L75.1834 211.763L81.0453 205.901L75.1834 200.039L28.2217 247ZM92.3006 92.3004V158.714H100.591V150.423H97.8273V158.714H95.064V147.66H103.354V161.477H89.5372V89.5367H161.477V103.353H147.661V95.0632H158.714V97.8266H150.424V100.59H158.714V92.2998H92.3006V92.3004ZM247 28.2218L200.039 75.1829L205.901 81.0448L211.763 75.1829L209.809 73.2288L203.947 79.0908L201.993 77.1367L209.809 69.3207L215.67 75.1826L205.9 84.9527L196.13 75.1826L247 24.3134L297.869 75.1826L288.099 84.9527L278.329 75.1826L284.191 69.3207L292.007 77.1367L290.053 79.0908L284.191 73.2288L282.237 75.1829L288.098 81.0448L293.96 75.1829L247 28.2218ZM332.523 72.9569H324.233V78.4837H321.47V70.1935H332.523V72.9569H332.523ZM184.407 63.4591L178.545 69.321L182.453 73.2288L180.499 75.1829L174.637 69.321L182.453 61.505L184.407 63.4591ZM72.9571 161.477V169.767H78.4839V172.531H70.1937V161.477H72.9571V161.477ZM63.4593 309.593L69.3212 315.455L73.229 311.547L75.1831 313.501L69.3212 319.363L61.5052 311.547L63.4593 309.593ZM161.477 421.043H169.767V415.516H172.531V423.806H161.477V421.043ZM309.593 430.541L315.455 424.679L311.547 420.771L313.501 418.817L319.363 424.679L311.547 432.495L309.593 430.541ZM421.043 332.523V324.233H415.517V321.469H423.807V332.523H421.043V332.523ZM430.541 184.407L424.679 178.545L420.771 182.453L418.817 180.499L424.679 174.637L432.495 182.453L430.541 184.407ZM423.806 161.477V172.53H415.516V169.767H421.043V161.477H423.806V161.477ZM311.547 61.505L319.363 69.321L313.501 75.1829L311.547 73.2288L315.455 69.321L309.594 63.4591L311.547 61.505ZM161.477 70.1935H172.531V78.4837H169.767V72.9569H161.477V70.1935ZM61.5052 182.453L69.3212 174.637L75.1831 180.499L73.229 182.453L69.3212 178.545L63.4593 184.407L61.5052 182.453ZM70.1937 332.523V321.47H78.4839V324.233H72.9571V332.523H70.1937V332.523ZM182.453 432.495L174.637 424.679L180.499 418.817L182.453 420.771L178.545 424.679L184.407 430.541L182.453 432.495ZM332.523 423.806H321.47V415.516H324.233V421.043H332.523V423.806H332.523ZM432.495 311.547L424.679 319.363L418.817 313.501L420.771 311.547L424.679 315.455L430.541 309.593L432.495 311.547ZM329.527 120.323H332.29V117.56H326.763L326.765 120.823C319.797 118.771 312.437 117.353 304.722 116.656L304.654 114.794L332.325 114.796L332.339 122.627C331.418 122.301 330.49 121.987 329.554 121.684L329.527 120.323ZM215.781 99.0711L217.735 97.117L215.781 95.163L211.873 99.0708L214.182 101.376C207.804 104.853 201.596 109.054 195.649 114.017L194.284 112.748L213.851 93.1836L219.399 98.7107C218.517 99.1316 217.639 99.5656 216.763 100.013L215.781 99.0711ZM120.323 164.474V161.71H117.56V167.237L120.823 167.235C118.771 174.203 117.353 181.563 116.656 189.278L114.794 189.346L114.796 161.675L122.627 161.661C122.301 162.582 121.987 163.51 121.684 164.446L120.323 164.474ZM99.0713 278.219L97.1172 276.265L95.1632 278.219L99.071 282.127L101.376 279.819C104.853 286.196 109.055 292.404 114.017 298.351L112.749 299.716L93.1838 280.149L98.7108 274.602C99.1317 275.483 99.5658 276.362 100.013 277.238L99.0713 278.219ZM164.474 373.677H161.71V376.44H167.237L167.235 373.178C174.203 375.229 181.564 376.647 189.278 377.344L189.346 379.206L161.676 379.204L161.661 371.373C162.582 371.699 163.511 372.014 164.446 372.316L164.474 373.677ZM278.219 394.929L276.265 396.883L278.219 398.837L282.127 394.929L279.818 392.624C286.196 389.147 292.404 384.946 298.351 379.983L299.716 381.252L280.149 400.816L274.602 395.289C275.483 394.868 276.362 394.434 277.238 393.987L278.219 394.929ZM373.677 329.526V332.29H376.44V326.763L373.178 326.765C375.229 319.797 376.647 312.437 377.344 304.722L379.206 304.654L379.204 332.325L371.373 332.339C371.699 331.418 372.013 330.49 372.316 329.554L373.677 329.526ZM394.929 215.781L396.883 217.735L398.837 215.781L394.929 211.873L392.624 214.182C389.148 207.804 384.946 201.597 379.983 195.649L381.252 194.284L400.817 213.851L395.289 219.398C394.868 218.517 394.434 217.638 393.987 216.763L394.929 215.781ZM372.316 164.446C372.013 163.51 371.699 162.582 371.374 161.661L379.204 161.675L379.206 189.346L377.344 189.278C376.648 181.563 375.23 174.202 373.178 167.234L376.441 167.237V161.71H373.677V164.473L372.316 164.446ZM277.238 100.014C276.362 99.5659 275.483 99.1319 274.602 98.711L280.149 93.1839L299.716 112.749L298.351 114.017C292.404 109.055 286.196 104.853 279.818 101.376L282.127 99.0711L278.219 95.1633L276.265 97.1173L278.219 99.0714L277.238 100.014ZM164.446 121.684C163.511 121.987 162.582 122.301 161.661 122.627L161.675 114.796L189.346 114.794L189.278 116.656C181.563 117.353 174.203 118.771 167.235 120.822L167.237 117.56H161.71V120.323H164.474L164.446 121.684ZM100.014 216.763C99.5661 217.638 99.1321 218.517 98.7112 219.398L93.1841 213.851L112.749 194.284L114.017 195.649C109.055 201.597 104.853 207.804 101.377 214.182L99.0713 211.873L95.1634 215.781L97.1175 217.735L99.0716 215.781L100.014 216.763ZM121.684 329.554C121.987 330.49 122.301 331.418 122.627 332.339L114.796 332.325L114.794 304.654L116.656 304.722C117.353 312.437 118.771 319.798 120.823 326.766L117.56 326.763V332.29H120.323V329.527L121.684 329.554ZM216.762 393.986C217.638 394.434 218.517 394.868 219.398 395.289L213.851 400.816L194.284 381.251L195.649 379.983C201.596 384.945 207.804 389.147 214.182 392.624L211.873 394.929L215.781 398.837L217.735 396.883L215.781 394.929L216.762 393.986ZM329.554 372.316C330.49 372.013 331.418 371.699 332.339 371.373L332.325 379.204L304.654 379.206L304.722 377.344C312.437 376.647 319.798 375.229 326.765 373.178L326.763 376.44H332.29V373.677H329.527L329.554 372.316ZM393.987 277.237C394.434 276.362 394.868 275.483 395.289 274.601L400.816 280.149L381.252 299.716L379.983 298.351C384.945 292.403 389.148 286.196 392.624 279.818L394.929 282.127L398.837 278.219L396.883 276.265L394.929 278.219L393.987 277.237ZM359.923 112.032H354.396V123.086H351.633V125.849H357.16V114.796H359.923V112.032ZM231.412 71.7144L227.504 75.6223L235.32 83.4383L233.366 85.3923L235.32 87.3464L239.228 83.4386L231.412 75.6226L233.366 73.6685L231.412 71.7144ZM112.032 134.077V139.604H123.085V142.367H125.849V136.84H114.796V134.077H112.032ZM71.7146 262.588L75.6225 266.496L83.4384 258.68L85.3925 260.634L87.3466 258.68L83.4387 254.772L75.6228 262.588L73.6687 260.634L71.7146 262.588ZM134.077 381.968H139.604V370.915H142.367V368.151H136.84V379.205H134.077V381.968ZM262.588 422.286L266.496 418.378L258.68 410.562L260.634 408.608L258.68 406.654L254.772 410.561L262.588 418.377L260.634 420.331L262.588 422.286ZM381.968 359.923V354.397H370.915V351.633H368.151V357.16H379.205V359.923H381.968ZM422.285 231.412L418.378 227.504L410.562 235.32L408.608 233.366L406.654 235.32L410.561 239.228L418.377 231.412L420.331 233.366L422.285 231.412ZM379.205 134.077V136.84H368.151V142.367H370.915V139.604H381.968V134.077H379.205ZM260.634 73.6685L262.588 75.6226L254.772 83.4386L258.68 87.3464L260.634 85.3923L258.68 83.4383L266.496 75.6223L262.588 71.7144L260.634 73.6685ZM134.077 114.795H136.84V125.849H142.367V123.085H139.604V112.032H134.077V114.795ZM73.6687 233.366L75.6228 231.412L83.4387 239.228L87.3466 235.32L85.3925 233.366L83.4384 235.32L75.6225 227.504L71.7146 231.412L73.6687 233.366ZM114.796 359.923V357.16H125.849V351.633H123.085V354.396H112.032V359.923H114.796ZM233.366 420.331L231.412 418.377L239.228 410.561L235.32 406.654L233.366 408.608L235.32 410.562L227.504 418.378L231.412 422.286L233.366 420.331ZM359.923 379.205H357.16V368.151H351.633V370.914H354.396V381.968H359.923V379.205ZM420.332 260.634L418.378 262.588L410.562 254.772L406.654 258.68L408.608 260.634L410.562 258.68L418.378 266.496L422.286 262.588L420.332 260.634ZM370.913 123.087H365.45V128.55H370.913V123.087ZM422.24 247L418.377 243.137L414.514 247L418.377 250.863L422.24 247ZM370.913 370.914V365.45H365.45V370.914H370.913ZM247 422.24L250.863 418.377L247 414.514L243.137 418.377L247 422.24ZM123.087 370.914H128.55V365.45H123.087V370.914ZM71.7602 247L75.6234 250.863L79.4865 247L75.6234 243.137L71.7602 247ZM123.087 123.087V128.55H128.55V123.087H123.087ZM247 71.76L243.137 75.6232L247 79.4863L250.863 75.6232L247 71.76ZM376.44 117.56H370.977V123.023H376.44V117.56ZM430.056 247L426.193 243.137L422.33 247L426.193 250.863L430.056 247ZM376.44 376.44V370.977H370.977V376.44H376.44ZM247 430.056L250.863 426.193L247 422.33L243.137 426.193L247 430.056ZM117.56 376.44H123.023V370.977H117.56V376.44ZM63.9442 247L67.8074 250.863L71.6706 247L67.8074 243.137L63.9442 247ZM117.56 117.56V123.023H123.023V117.56H117.56ZM247 63.944L243.137 67.8072L247 71.6704L250.863 67.8072L247 63.944ZM381.967 112.033H376.504V117.497H381.967V112.033ZM437.872 247L434.009 243.137L430.146 247L434.009 250.863L437.872 247ZM381.967 381.967V376.503H376.504V381.967H381.967ZM247 437.872L250.863 434.009L247 430.146L243.137 434.009L247 437.872ZM112.033 381.967H117.497V376.503H112.033V381.967V381.967ZM56.1283 247L59.9914 250.863L63.8546 247L59.9914 243.137L56.1283 247ZM112.033 112.033V117.497H117.497V112.033H112.033ZM247 56.1281L243.137 59.9912L247 63.8544L250.863 59.9912L247 56.1281ZM365.388 128.612H359.924L359.936 134.064L365.388 134.076V128.612ZM247 79.5736L243.136 83.4374L247 87.2847L250.864 83.4374L247 79.5736ZM128.612 128.612V134.076L134.065 134.064L134.076 128.612H128.612V128.612ZM79.5738 247L83.4376 250.864L87.2849 247L83.4376 243.136L79.5738 247ZM128.612 365.388H134.076L134.065 359.936L128.612 359.924V365.388V365.388ZM247 414.426L250.864 410.563L247 406.715L243.136 410.563L247 414.426ZM365.388 365.388V359.924L359.936 359.936L359.924 365.388H365.388ZM414.427 247L410.563 243.136L406.715 247L410.563 250.864L414.427 247ZM359.862 134.139L355.514 134.147C354.057 133.184 352.572 132.254 351.057 131.358L351.634 131.376V120.322H354.397V117.559H348.871V128.612L346.121 128.614L346.107 125.849H348.871V123.086H343.344L343.352 127.222C340.666 125.92 337.902 124.721 335.063 123.63L335.058 114.796H337.864L337.817 117.56H335.054V120.323H340.581L340.622 114.796H346.107V109.269H359.944L359.924 117.558H357.161V120.322H362.688V109.269H365.451V112.032H362.688V114.795H368.214L368.226 109.269L382.031 109.268V111.969H384.732L384.731 125.774L379.205 125.786V131.313H381.968V128.549H384.732V131.313H373.678V136.839H376.442V134.076L384.731 134.056V147.893H379.204V153.378L373.677 153.419V158.946H376.44V156.183L379.204 156.136V158.942L370.37 158.937C369.28 156.099 368.08 153.335 366.778 150.648L370.915 150.656V145.129H368.152V147.893L365.386 147.88L365.388 145.13H376.441V139.603H373.678V142.366H362.625L362.642 142.943C361.747 141.428 360.817 139.943 359.854 138.486L359.862 134.139ZM247 87.3899L243.931 90.4699C242.221 90.819 240.513 91.2119 238.808 91.6495L239.229 91.2539L231.413 83.438L233.367 81.4839L231.413 79.5298L227.505 83.4377L235.321 91.2536L233.378 93.1997L231.413 91.2536L233.367 89.2996L231.413 87.3455L227.505 91.2533L230.436 94.1728C227.616 95.1519 224.813 96.2579 222.035 97.4941L215.785 91.2507L217.769 89.2665L219.69 91.2545L217.736 93.2086L219.69 95.1627L223.598 91.2548L219.718 87.3172L223.597 83.4383L219.689 79.5304L229.473 69.7464L235.321 75.622L233.367 77.5761L235.321 79.5301L239.229 75.6223L231.413 67.8063L233.367 65.8522L235.321 67.8063L233.367 69.7604L235.321 71.7144L239.229 67.8066L235.329 63.891L245.09 54.1281L247 56.0381L248.91 54.1281L258.67 63.891L254.771 67.8066L258.679 71.7144L260.633 69.7604L258.679 67.8063L260.633 65.8522L262.587 67.8063L254.771 75.622L258.679 79.5298L260.633 77.5758L258.679 75.6217L264.527 69.7461L274.311 79.5301L270.403 83.438L274.282 87.3169L270.402 91.2545L274.31 95.1624L276.264 93.2083L274.31 91.2542L276.231 89.2662L278.216 91.2503L271.965 97.4938C269.187 96.2577 266.384 95.1516 263.564 94.1725L266.495 91.253L262.587 87.3452L260.633 89.2993L262.587 91.2533L260.622 93.1994L258.679 91.2533L266.495 83.4374L262.587 79.5295L260.633 81.4836L262.587 83.4377L254.771 91.2536L255.191 91.6492C253.487 91.2116 251.779 90.8184 250.068 90.4696L247 87.3899ZM134.138 134.139L134.147 138.486C133.184 139.943 132.254 141.428 131.358 142.943L131.376 142.366H120.322V139.603H117.559V145.13H128.612L128.614 147.88L125.849 147.893V145.129H123.085V150.656L127.222 150.648C125.92 153.335 124.721 156.099 123.63 158.937L114.796 158.942V156.136L117.56 156.183V158.946H120.323V153.419L114.796 153.378V147.893H109.269V134.056L117.558 134.076V136.839H120.322V131.313H109.268V128.549H112.032V131.313H114.795V125.786L109.269 125.774L109.268 111.969H111.969V109.268L125.774 109.269L125.786 114.795H131.313V112.032H128.549V109.269H131.313V120.322H136.839V117.558H134.076L134.056 109.269H147.893V114.796H153.378L153.419 120.323H158.946V117.56H156.183L156.136 114.796H158.942L158.937 123.63C156.099 124.721 153.335 125.92 150.648 127.222L150.656 123.086H145.129V125.849H147.893L147.879 128.614L145.13 128.612V117.559H139.603V120.322H142.366V131.376L142.943 131.358C141.428 132.254 139.943 133.184 138.486 134.147L134.138 134.139ZM87.3898 247L90.4698 250.069C90.8189 251.779 91.2118 253.487 91.6494 255.192L91.2538 254.772L83.4379 262.588L81.4838 260.633L79.5297 262.588L83.4376 266.496L91.2535 258.68L93.1996 260.623L91.2535 262.588L89.2995 260.633L87.3454 262.588L91.2532 266.495L94.1727 263.565C95.1518 266.385 96.2579 269.188 97.494 271.966L91.2505 278.216L89.2664 276.232L91.2544 274.31L93.2085 276.265L95.1626 274.31L91.2547 270.403L87.3171 274.282L83.4381 270.403L79.5303 274.311L69.7463 264.527L75.6219 258.68L77.5759 260.634L79.53 258.68L75.6222 254.772L67.8065 262.588L65.8524 260.633L67.8065 258.679L69.7606 260.633L71.7146 258.679L67.8068 254.772L63.8912 258.671L54.1283 248.91L56.0383 247L54.1283 245.09L63.8912 235.33L67.8068 239.229L71.7146 235.321L69.7606 233.367L67.8065 235.321L65.8524 233.367L67.8065 231.413L75.6222 239.229L79.53 235.321L77.5759 233.367L75.6219 235.321L69.7463 229.474L79.5303 219.689L83.4381 223.597L87.3171 219.718L91.2547 223.598L95.1626 219.69L93.2085 217.736L91.2544 219.69L89.2664 217.769L91.2505 215.785L97.494 222.035C96.2579 224.813 95.1518 227.616 94.1727 230.436L91.2532 227.505L87.3454 231.413L89.2995 233.367L91.2535 231.413L93.1996 233.378L91.2535 235.321L83.4376 227.505L79.5297 231.413L81.4838 233.367L83.4379 231.413L91.2538 239.229L91.6494 238.808C91.2118 240.513 90.8186 242.221 90.4698 243.932L87.3898 247ZM134.138 359.861L138.486 359.853C139.943 360.816 141.428 361.746 142.943 362.642L142.366 362.624V373.678H139.603V376.441H145.13V365.388L147.879 365.386L147.893 368.151H145.129V370.914H150.656L150.648 366.778C153.335 368.08 156.099 369.279 158.937 370.37L158.942 379.204H156.136L156.183 376.44H158.946V373.676H153.42L153.379 379.204H147.893V384.731H134.056L134.076 376.441H136.84V373.678H131.313V384.731H128.549V381.968H131.313V379.204H125.786L125.774 384.73L111.969 384.732V382.031H109.268L109.27 368.225L114.796 368.214V362.687H112.032V365.45H109.269V362.687H120.322V357.16H117.559V359.924L109.269 359.944V346.107H114.796V340.621L120.324 340.58V335.053H117.56V337.817L114.796 337.864V335.058L123.63 335.063C124.721 337.901 125.92 340.665 127.222 343.352L123.086 343.344V348.87H125.849V346.107L128.615 346.12L128.613 348.87H117.559V354.397H120.323V351.633H131.376L131.358 351.056C132.254 352.571 133.184 354.057 134.147 355.513L134.138 359.861ZM247 406.61L250.069 403.53C251.78 403.181 253.488 402.788 255.192 402.351L254.772 402.746L262.588 410.562L260.634 412.516L262.588 414.47L266.496 410.562L258.68 402.746L260.623 400.8L262.588 402.746L260.634 404.7L262.588 406.654L266.496 402.747L263.565 399.827C266.385 398.848 269.188 397.742 271.966 396.506L278.216 402.749L276.232 404.733L274.311 402.745L276.265 400.791L274.311 398.837L270.403 402.745L274.282 406.683L270.403 410.562L274.312 414.47L264.528 424.254L258.68 418.378L260.634 416.424L258.68 414.47L254.772 418.378L262.588 426.194L260.634 428.148L258.68 426.194L260.634 424.24L258.68 422.286L254.772 426.194L258.671 430.109L248.91 439.872L247 437.962L245.091 439.872L235.33 430.109L239.229 426.194L235.321 422.286L233.367 424.24L235.321 426.194L233.367 428.148L231.413 426.194L239.229 418.378L235.321 414.47L233.367 416.424L235.321 418.378L229.474 424.254L219.69 414.47L223.598 410.562L219.719 406.683L223.598 402.745L219.69 398.837L217.736 400.791L219.69 402.745L217.769 404.733L215.785 402.749L222.035 396.506C224.813 397.742 227.616 398.848 230.436 399.827L227.505 402.747L231.413 406.654L233.367 404.7L231.413 402.746L233.378 400.8L235.321 402.746L227.505 410.562L231.413 414.47L233.367 412.516L231.413 410.562L239.229 402.746L238.809 402.351C240.513 402.788 242.221 403.182 243.932 403.53L247 406.61ZM359.862 359.861L359.854 355.514C360.816 354.057 361.746 352.571 362.642 351.057L362.624 351.634H373.678V354.397H376.441V348.87H365.388L365.386 346.12L368.151 346.107V348.871H370.915V343.344L366.778 343.352C368.08 340.665 369.28 337.901 370.37 335.063L379.204 335.058V337.864L376.44 337.817V335.054H373.677V340.58L379.204 340.622V346.107H384.731V359.944L376.441 359.924V357.161H373.678V362.687H384.731V365.451H381.968V362.687H379.204V368.214L384.73 368.226L384.732 382.031H382.031V384.732L368.226 384.731L368.214 379.205H362.687V381.968H365.451V384.731H362.687V373.678H357.16V376.441H359.924L359.944 384.731H346.107V379.204H340.621L340.58 373.677H335.054V376.44H337.817L337.864 379.204H335.058L335.063 370.37C337.901 369.28 340.665 368.08 343.352 366.778L343.344 370.915H348.871V368.151H346.107L346.12 365.386L348.87 365.388V376.441H354.397V373.678H351.634V362.625L351.057 362.642C352.571 361.746 354.057 360.816 355.514 359.854L359.862 359.861ZM406.61 247L403.53 243.931C403.181 242.221 402.788 240.513 402.351 238.808L402.746 239.228L410.562 231.412L412.516 233.366L414.47 231.412L410.562 227.505L402.746 235.321L400.8 233.378L402.746 231.413L404.7 233.367L406.654 231.413L402.747 227.505L399.827 230.436C398.848 227.615 397.742 224.813 396.506 222.034L402.749 215.784L404.733 217.769L402.745 219.69L400.791 217.736L398.837 219.69L402.745 223.598L406.683 219.718L410.562 223.597L414.47 219.689L424.254 229.473L418.378 235.321L416.424 233.367L414.47 235.321L418.378 239.229L426.194 231.413L428.148 233.367L426.194 235.321L424.24 233.367L422.286 235.321L426.194 239.229L430.109 235.329L439.872 245.09L437.962 247L439.872 248.91L430.109 258.67L426.194 254.771L422.286 258.679L424.24 260.633L426.194 258.679L428.148 260.633L426.194 262.587L418.378 254.771L414.47 258.679L416.424 260.633L418.378 258.679L424.254 264.527L414.47 274.311L410.562 270.403L406.683 274.282L402.745 270.402L398.837 274.31L400.791 276.264L402.745 274.31L404.733 276.231L402.749 278.216L396.506 271.966C397.742 269.187 398.848 266.385 399.827 263.564L402.747 266.495L406.654 262.587L404.7 260.633L402.746 262.587L400.8 260.622L402.746 258.679L410.562 266.495L414.47 262.587L412.516 260.633L410.562 262.587L402.746 254.771L402.351 255.192C402.788 253.487 403.181 251.779 403.53 250.068L406.61 247ZM387.465 106.535L343.268 106.587V112.114H302.872L274.307 83.5494L278.216 79.6409L247 48.3529L215.784 79.6409L219.693 83.5494L191.128 112.114H150.732V106.587L106.535 106.535L106.587 150.732H112.114V191.128L83.5496 219.693L79.6411 215.784L48.3531 247L79.6411 278.216L83.5496 274.307L112.114 302.872V343.268H106.587L106.535 387.465L150.732 387.413V381.886H191.128L219.693 410.451L215.785 414.359L247 445.647L278.216 414.359L274.307 410.451L302.872 381.886H343.268V387.413L387.465 387.465L387.414 343.268H381.886V302.872L410.451 274.307L414.359 278.216L445.647 247L414.359 215.784L410.451 219.693L381.886 191.128V150.732H387.414L387.465 106.535ZM301.817 114.66V119.26C303.517 119.349 305.206 119.474 306.882 119.645C308.623 119.822 310.349 120.041 312.063 120.303C313.777 120.565 315.48 120.869 317.166 121.214C318.852 121.559 320.522 121.944 322.177 122.369C323.832 122.795 325.469 123.264 327.09 123.768C328.712 124.273 330.319 124.815 331.906 125.396C333.492 125.977 335.061 126.593 336.61 127.248C338.159 127.903 339.687 128.597 341.196 129.325C342.706 130.052 344.194 130.814 345.661 131.611C347.129 132.408 348.576 133.241 349.999 134.106C351.423 134.971 352.823 135.871 354.201 136.802C354.796 137.204 355.387 137.612 355.974 138.026C356.387 138.613 356.796 139.204 357.198 139.799C358.129 141.177 359.028 142.577 359.893 144.001C360.759 145.424 361.592 146.871 362.389 148.339C363.186 149.806 363.948 151.294 364.675 152.803C365.402 154.313 366.096 155.841 366.751 157.39C367.407 158.939 368.023 160.507 368.604 162.094C369.185 163.68 369.727 165.288 370.232 166.91C370.736 168.531 371.205 170.168 371.63 171.823C372.056 173.478 372.441 175.148 372.786 176.834C373.131 178.519 373.435 180.223 373.697 181.937C373.959 183.651 374.178 185.377 374.355 187.118C374.525 188.795 374.651 190.483 374.74 192.182H379.34L376.088 195.435C377.226 196.7 378.331 197.983 379.396 199.289C380.502 200.644 381.568 202.02 382.595 203.418C383.622 204.815 384.611 206.235 385.559 207.671C386.507 209.107 387.416 210.56 388.285 212.031C389.154 213.502 389.98 214.991 390.77 216.494C391.56 217.998 392.313 219.518 393.024 221.051C393.736 222.583 394.409 224.128 395.041 225.686C395.673 227.245 396.263 228.816 396.816 230.398C397.369 231.98 397.883 233.57 398.356 235.171C398.83 236.773 399.264 238.385 399.659 240.003C400.054 241.622 400.408 243.248 400.724 244.88C400.861 245.586 400.99 246.292 401.112 247C400.99 247.707 400.861 248.413 400.724 249.119C400.408 250.751 400.054 252.378 399.659 253.996C399.264 255.614 398.831 257.227 398.356 258.828C397.882 260.429 397.369 262.02 396.816 263.602C396.263 265.183 395.673 266.755 395.041 268.313C394.409 269.872 393.736 271.416 393.024 272.949C392.313 274.481 391.56 276.002 390.77 277.505C389.98 279.009 389.154 280.497 388.285 281.969C387.416 283.44 386.507 284.893 385.559 286.329C384.611 287.764 383.622 289.184 382.595 290.582C381.568 291.979 380.503 293.355 379.396 294.711C378.331 296.017 377.226 297.3 376.088 298.564L379.34 301.817H374.74C374.651 303.516 374.525 305.205 374.355 306.881C374.178 308.622 373.959 310.348 373.697 312.062C373.435 313.777 373.131 315.48 372.786 317.166C372.441 318.851 372.056 320.521 371.63 322.176C371.205 323.831 370.736 325.468 370.232 327.09C369.727 328.711 369.185 330.319 368.604 331.905C368.023 333.492 367.407 335.06 366.751 336.609C366.096 338.158 365.402 339.687 364.675 341.196C363.948 342.705 363.186 344.193 362.389 345.661C361.592 347.128 360.759 348.575 359.893 349.999C359.028 351.422 358.129 352.823 357.198 354.2C356.796 354.796 356.388 355.387 355.974 355.973C355.387 356.387 354.796 356.795 354.201 357.197C352.823 358.128 351.423 359.028 349.999 359.893C348.575 360.758 347.129 361.591 345.661 362.389C344.194 363.186 342.706 363.947 341.196 364.675C339.687 365.402 338.159 366.096 336.61 366.751C335.061 367.406 333.492 368.022 331.906 368.603C330.319 369.184 328.712 369.727 327.09 370.231C325.469 370.735 323.832 371.204 322.177 371.63C320.522 372.056 318.852 372.44 317.166 372.785C315.48 373.13 313.777 373.434 312.063 373.697C310.349 373.959 308.622 374.178 306.882 374.355C305.205 374.525 303.517 374.65 301.817 374.74V379.34L298.565 376.087C297.3 377.225 296.017 378.331 294.711 379.396C293.355 380.502 291.98 381.567 290.582 382.594C289.185 383.622 287.765 384.61 286.329 385.559C284.893 386.507 283.44 387.416 281.969 388.285C280.498 389.154 279.009 389.98 277.506 390.77C276.002 391.56 274.482 392.313 272.949 393.024C271.417 393.735 269.872 394.408 268.314 395.04C266.755 395.672 265.183 396.262 263.602 396.815C262.02 397.368 260.43 397.882 258.829 398.356C257.227 398.83 255.615 399.264 253.996 399.659C252.378 400.054 250.752 400.408 249.12 400.724C248.414 400.861 247.708 400.99 247 401.112C246.293 400.99 245.586 400.861 244.881 400.724C243.248 400.408 241.622 400.054 240.004 399.659C238.386 399.264 236.773 398.83 235.172 398.356C233.57 397.882 231.98 397.368 230.398 396.815C228.817 396.262 227.245 395.672 225.687 395.04C224.128 394.408 222.584 393.735 221.051 393.024C219.518 392.313 217.998 391.56 216.495 390.77C214.991 389.98 213.503 389.154 212.031 388.285C210.56 387.416 209.107 386.506 207.671 385.559C206.236 384.61 204.816 383.622 203.418 382.594C202.021 381.567 200.645 380.502 199.289 379.396C197.983 378.331 196.7 377.226 195.436 376.087L192.183 379.34V374.74C190.484 374.65 188.795 374.525 187.119 374.355C185.378 374.178 183.652 373.958 181.937 373.697C180.223 373.435 178.52 373.13 176.834 372.785C175.149 372.44 173.478 372.056 171.823 371.63C170.169 371.204 168.532 370.735 166.91 370.231C165.289 369.727 163.681 369.184 162.094 368.603C160.508 368.022 158.94 367.406 157.391 366.751C155.842 366.096 154.313 365.402 152.804 364.675C151.295 363.947 149.807 363.186 148.339 362.389C146.871 361.591 145.425 360.758 144.001 359.893C142.578 359.028 141.177 358.128 139.8 357.197C139.204 356.795 138.613 356.387 138.027 355.973C137.613 355.387 137.205 354.796 136.802 354.2C135.872 352.823 134.972 351.422 134.107 349.999C133.242 348.575 132.408 347.128 131.611 345.661C130.814 344.193 130.053 342.705 129.325 341.196C128.598 339.687 127.904 338.158 127.249 336.609C126.594 335.06 125.978 333.492 125.397 331.905C124.816 330.319 124.273 328.711 123.769 327.09C123.265 325.468 122.796 323.831 122.37 322.176C121.944 320.522 121.56 318.851 121.215 317.166C120.87 315.48 120.565 313.777 120.303 312.062C120.041 310.348 119.822 308.622 119.645 306.881C119.475 305.205 119.35 303.516 119.26 301.817H114.66L117.913 298.564C116.775 297.3 115.669 296.017 114.604 294.711C113.498 293.355 112.433 291.979 111.405 290.582C110.378 289.184 109.389 287.764 108.441 286.329C107.493 284.893 106.584 283.44 105.715 281.969C104.846 280.497 104.02 279.009 103.23 277.505C102.44 276.002 101.687 274.481 100.976 272.949C100.265 271.416 99.592 269.872 98.9599 268.313C98.3278 266.755 97.738 265.183 97.1848 263.602C96.632 262.02 96.1181 260.429 95.6442 258.828C95.1703 257.227 94.7363 255.614 94.3413 253.996C93.9463 252.378 93.5925 250.751 93.2764 249.119C93.1397 248.413 93.0104 247.707 92.8883 247C93.0104 246.292 93.1397 245.586 93.2764 244.88C93.5925 243.248 93.9463 241.622 94.3413 240.003C94.7363 238.385 95.17 236.773 95.6442 235.171C96.1181 233.57 96.632 231.979 97.1848 230.398C97.738 228.816 98.3278 227.245 98.9599 225.686C99.592 224.128 100.265 222.583 100.976 221.051C101.687 219.518 102.44 217.997 103.23 216.494C104.02 214.991 104.846 213.502 105.715 212.031C106.584 210.56 107.493 209.107 108.441 207.671C109.389 206.235 110.378 204.815 111.405 203.418C112.433 202.02 113.498 200.645 114.604 199.289C115.669 197.983 116.774 196.7 117.913 195.435L114.66 192.182H119.26C119.35 190.483 119.475 188.795 119.645 187.118C119.822 185.377 120.041 183.651 120.303 181.937C120.565 180.223 120.87 178.519 121.215 176.834C121.56 175.148 121.944 173.478 122.37 171.823C122.796 170.168 123.265 168.531 123.769 166.91C124.273 165.288 124.816 163.68 125.397 162.094C125.978 160.507 126.594 158.939 127.249 157.39C127.904 155.841 128.598 154.313 129.325 152.803C130.053 151.294 130.814 149.806 131.611 148.339C132.409 146.871 133.242 145.424 134.107 144.001C134.972 142.577 135.872 141.177 136.802 139.799C137.205 139.204 137.613 138.613 138.027 138.026C138.613 137.612 139.204 137.204 139.8 136.802C141.177 135.871 142.578 134.971 144.001 134.106C145.425 133.241 146.871 132.408 148.339 131.611C149.807 130.814 151.295 130.052 152.804 129.325C154.313 128.597 155.842 127.904 157.391 127.248C158.94 126.593 160.508 125.977 162.094 125.396C163.681 124.815 165.289 124.273 166.91 123.768C168.532 123.264 170.169 122.795 171.823 122.369C173.478 121.944 175.149 121.559 176.834 121.214C178.52 120.869 180.223 120.565 181.937 120.303C183.652 120.041 185.378 119.821 187.119 119.645C188.795 119.474 190.484 119.349 192.183 119.26V114.66L195.436 117.912C196.7 116.774 197.983 115.669 199.289 114.604C200.645 113.498 202.021 112.432 203.418 111.405C204.816 110.378 206.236 109.389 207.671 108.441C209.107 107.493 210.56 106.584 212.031 105.715C213.503 104.846 214.991 104.02 216.495 103.23C217.998 102.44 219.519 101.687 221.051 100.976C222.584 100.265 224.128 99.5915 225.687 98.9594C227.246 98.3273 228.817 97.7375 230.398 97.1843C231.98 96.6315 233.57 96.1177 235.172 95.6437C236.774 95.1698 238.386 94.7358 240.004 94.3408C241.622 93.9458 243.249 93.592 244.881 93.2759C245.586 93.1392 246.293 93.0099 247 92.8878C247.708 93.0099 248.414 93.1392 249.12 93.2759C250.752 93.592 252.378 93.9458 253.996 94.3408C255.615 94.7358 257.227 95.1695 258.829 95.6437C260.43 96.1177 262.021 96.6315 263.602 97.1843C265.184 97.7375 266.755 98.3273 268.314 98.9594C269.872 99.5915 271.417 100.265 272.949 100.976C274.482 101.687 276.003 102.44 277.506 103.23C279.009 104.02 280.498 104.846 281.969 105.715C283.44 106.584 284.893 107.493 286.329 108.441C287.765 109.389 289.185 110.378 290.582 111.405C291.98 112.432 293.355 113.497 294.711 114.604C296.017 115.668 297.3 116.774 298.565 117.912L301.817 114.66Z" stroke="white" stroke-width="2.0945"/>
</svg>
