<svg width="154" height="130" viewBox="0 0 154 130" fill="none" xmlns="http://www.w3.org/2000/svg">
<path d="M109.469 32.9442C109.461 32.9442 109.443 32.9451 109.435 32.9451C109.443 32.725 109.469 32.511 109.469 32.29C109.469 14.87 95.3493 0.748169 77.9275 0.748169C60.5075 0.748169 46.3857 14.87 46.3857 32.29C46.3857 32.3109 46.3891 32.3309 46.3891 32.3509C32.7249 32.986 21.8325 44.2325 21.8325 58.0542C21.8325 72.283 33.367 83.8184 47.5958 83.8184H109.469C123.52 83.8184 134.908 72.4292 134.908 58.3804C134.908 44.3325 123.52 32.9442 109.469 32.9442Z" fill="#62C6EF"/>
<path d="M117.107 99.4261H39.4174C37.6087 99.4261 36.1401 97.9559 36.1401 96.1463C36.1401 94.3367 37.6087 92.8664 39.4174 92.8664H117.107C118.917 92.8664 120.387 94.3367 120.387 96.1463C120.387 97.9559 118.917 99.4261 117.107 99.4261Z" fill="#B4E6F5"/>
<path d="M150.69 99.4261H134.186C132.377 99.4261 130.906 97.9559 130.906 96.1463C130.906 94.3367 132.377 92.8664 134.186 92.8664H150.69C152.5 92.8664 153.961 94.3367 153.961 96.1463C153.961 97.9559 152.5 99.4261 150.69 99.4261Z" fill="#B4E6F5"/>
<path d="M147.445 129.737H25.878C24.0692 129.737 22.6006 128.267 22.6006 126.466C22.6006 124.656 24.0692 123.186 25.878 123.186H147.445C149.254 123.186 150.716 124.656 150.716 126.466C150.716 128.267 149.254 129.737 147.445 129.737Z" fill="#B4E6F5"/>
<path d="M95.0532 114.582H3.84418C2.03458 114.582 0.566895 113.111 0.566895 111.302C0.566895 109.492 2.03458 108.022 3.84418 108.022H95.0532C96.8628 108.022 98.3331 109.492 98.3331 111.302C98.3331 113.111 96.8628 114.582 95.0532 114.582" fill="#B4E6F5"/>
<path d="M140.389 114.582H113.698C111.888 114.582 110.426 113.111 110.426 111.302C110.426 109.492 111.888 108.022 113.698 108.022H140.389C142.199 108.022 143.669 109.492 143.669 111.302C143.669 113.111 142.199 114.582 140.389 114.582Z" fill="#B4E6F5"/>
</svg>
