<svg width="114" height="112" viewBox="0 0 114 112" fill="none" xmlns="http://www.w3.org/2000/svg">
<path d="M88.087 32.4881C88.0783 32.4881 88.0609 32.4898 88.0522 32.4898C88.0609 32.2697 88.087 32.0557 88.087 31.8338C88.087 14.4121 73.9669 0.292007 56.5451 0.292007C39.1251 0.292007 25.0033 14.4121 25.0033 31.8338C25.0033 31.8547 25.0068 31.8748 25.0068 31.8948C11.3426 32.5299 0.450195 43.7764 0.450195 57.5981C0.450195 71.8269 11.9846 83.3614 26.2135 83.3614H88.087C102.138 83.3614 113.526 71.9731 113.526 57.9243C113.526 43.8764 102.138 32.4881 88.087 32.4881Z" fill="#62C6EF"/>
<path d="M12.1758 111.909C11.5825 111.909 10.9821 111.749 10.4419 111.411C8.90719 110.452 8.44092 108.431 9.39965 106.895L34.8636 66.1528C35.8232 64.6164 37.8451 64.1501 39.3789 65.1106C40.9145 66.0693 41.3799 68.0912 40.4211 69.6259L14.958 110.369C14.336 111.364 13.2677 111.909 12.1758 111.909Z" fill="#B4E6F5"/>
<path d="M64.963 111.909C64.3696 111.909 63.7693 111.748 63.229 111.411C61.6943 110.452 61.228 108.431 62.1868 106.895L80.2305 78.0196C81.1962 76.4815 83.2147 76.0204 84.7459 76.9774C86.2858 77.937 86.7556 79.958 85.7899 81.4935L67.7452 110.369C67.1231 111.364 66.0557 111.909 64.963 111.909Z" fill="#B4E6F5"/>
<path d="M37.6391 111.909C37.0527 111.909 36.4567 111.751 35.9208 111.421C34.3809 110.47 33.9032 108.451 34.8533 106.91L70.5033 49.16C71.4524 47.621 73.4708 47.1433 75.0107 48.0925C76.5506 49.0434 77.0291 51.0627 76.0808 52.6035L40.4309 110.353C39.8114 111.356 38.7379 111.909 37.6391 111.909Z" fill="#B4E6F5"/>
</svg>
