<?xml version="1.0" encoding="utf-8"?>

<!DOCTYPE svg PUBLIC "-//W3C//DTD SVG 1.1//EN" "http://www.w3.org/Graphics/SVG/1.1/DTD/svg11.dtd">
<svg version="1.1" id="Layer_1" xmlns="http://www.w3.org/2000/svg" xmlns:xlink="http://www.w3.org/1999/xlink" x="0px" y="0px"
	 viewBox="0 0 1658.407 1658.407" enable-background="new 0 0 1658.407 1658.407" xml:space="preserve">
<g id="layer1" transform="translate(-119.875,-128.9375)">
	<path id="path4857" fill="none" stroke="#000000" stroke-width="2.0945" d="M1164.197,438.799h44.16v-37.107h-9.277v27.831h-31.04
		l-21.949-21.949l19.679-19.679l-6.56-6.56l-26.239,26.239L1164.197,438.799z M1468.421,743.023l31.226,31.226l26.239-26.239
		l-6.56-6.56l-19.679,19.679l-21.949-21.949v-31.04h27.831v-9.277h-37.107V743.023z M1468.421,1173.26v44.16h37.107v-9.277h-27.831
		v-31.04l21.949-21.949l19.679,19.679l6.56-6.56l-26.239-26.239L1468.421,1173.26z M1164.197,1477.483l-31.226,31.226l26.239,26.239
		l6.56-6.56l-19.679-19.679l21.949-21.949h31.04v27.831h9.277v-37.107H1164.197z M733.96,1477.483H689.8v37.107h9.277v-27.831h31.04
		l21.949,21.949l-19.679,19.679l6.56,6.56l26.239-26.239L733.96,1477.483z M429.737,1173.26l-31.226-31.226l-26.239,26.239
		l6.56,6.56l19.679-19.679l21.949,21.949v31.04h-27.831v9.277h37.107V1173.26z M429.737,743.023v-44.16h-37.107v9.277h27.831v31.04
		l-21.949,21.949l-19.679-19.679l-6.56,6.56l26.239,26.239L429.737,743.023z M733.96,438.799l31.226-31.226l-26.239-26.239
		l-6.56,6.56l19.679,19.679l-21.949,21.949h-31.04v-27.831H689.8v37.107H733.96z M1179.568,401.692h38.066v9.277h9.277v-18.554
		h-43.501l-30.76-30.76l-13.119,13.119l6.56,6.56l6.56-6.56L1179.568,401.692z M1505.528,727.652l26.917,26.917l-6.56,6.56
		l6.56,6.56l13.12-13.119l-30.76-30.76v-43.501h-18.554v9.277h9.277V727.652z M1505.528,1188.63v38.066h-9.277v9.277h18.554v-43.501
		l30.76-30.76l-13.12-13.119l-6.56,6.56l6.56,6.56L1505.528,1188.63z M1179.568,1514.591l-26.917,26.917l-6.56-6.56l-6.56,6.56
		l13.119,13.12l30.76-30.76h43.501v-18.554h-9.277v9.277H1179.568z M718.59,1514.591h-38.066v-9.277h-9.277v18.554h43.501
		l30.76,30.76l13.119-13.12l-6.56-6.56l-6.56,6.56L718.59,1514.591z M392.629,1188.63l-26.917-26.917l6.56-6.56l-6.56-6.56
		l-13.119,13.119l30.76,30.76v43.501h18.554v-9.277h-9.277V1188.63z M392.629,727.652v-38.066h9.277v-9.277h-18.554v43.501
		l-30.76,30.76l13.119,13.119l6.56-6.56l-6.56-6.56L392.629,727.652z M718.59,401.692l26.917-26.917l6.56,6.56l6.56-6.56
		l-13.119-13.119l-30.76,30.76h-43.501v18.554h9.277v-9.277H718.59z M1236.188,457.353v-9.277h-9.277v-27.831h-9.277v37.107
		H1236.188z M797.985,401.014l-6.56-6.56l-6.56,6.56l-19.679-19.679l-6.56,6.56l26.239,26.239L797.985,401.014z M448.29,671.032
		h-9.277v9.277h-27.831v9.277h37.107V671.032z M391.951,1109.235l-6.56,6.56l6.56,6.56l-19.679,19.679l6.56,6.56l26.239-26.239
		L391.951,1109.235z M661.97,1458.93v9.277h9.277v27.831h9.277v-37.107H661.97z M1100.173,1515.269l6.56,6.56l6.56-6.56
		l19.679,19.679l6.56-6.56l-26.239-26.239L1100.173,1515.269z M1449.867,1245.25h9.277v-9.277h27.831v-9.277h-37.107V1245.25z
		 M1506.206,807.047l6.56-6.56l-6.56-6.56l19.679-19.679l-6.56-6.56l-26.239,26.239L1506.206,807.047z M1449.867,689.586h37.107
		v-9.277h-27.831v-9.277h-9.277V689.586z M1113.292,414.133l26.239-26.239l-6.56-6.56l-19.679,19.679l-6.56-6.56l-6.56,6.56
		L1113.292,414.133z M680.523,457.353v-37.107h-9.277v27.831h-9.277v9.277H680.523z M405.071,793.928l-26.239-26.239l-6.56,6.56
		l19.679,19.679l-6.56,6.56l6.56,6.56L405.071,793.928z M448.29,1226.696h-37.107v9.277h27.831v9.277h9.277V1226.696z
		 M784.865,1502.149l-26.239,26.239l6.56,6.56l19.679-19.679l6.56,6.56l6.56-6.56L784.865,1502.149z M1217.634,1458.93v37.107h9.277
		v-27.831h9.277v-9.277H1217.634z M1493.087,1122.355l26.239,26.239l6.56-6.56l-19.679-19.679l6.56-6.56l-6.56-6.56
		L1493.087,1122.355z M1505.528,401.692h-269.34v-46.384h46.384v27.831l-37.108,0v-9.277h27.831v-9.277h-27.831l-0.312,28.171
		l269.611-0.299l-0.299,269.611l28.171-0.312v-27.831h-9.277v27.831h-9.277v-37.108h27.831v46.384h-46.384V401.692z
		 M1736.017,958.141l-190.452-190.452l32.799-32.799l32.799,32.799l-19.679,19.679l-26.239-26.239l6.56-6.56l19.679,19.679
		l6.56-6.56l-19.679-19.679l-20.14,19.699l190.855,190.432l-190.855,190.432l20.14,19.699l19.679-19.679l-6.56-6.56l-19.679,19.679
		l-6.56-6.56l26.239-26.239l19.679,19.679l-32.799,32.799l-32.799-32.799L1736.017,958.141z M1505.528,1514.591v-269.34h46.384
		v46.384h-27.831v-37.108h9.277v27.831h9.277v-27.831l-28.171-0.312l0.299,269.611l-269.611-0.299l0.312,28.171h27.831v-9.277
		h-27.831v-9.277h37.108v27.831h-46.384v-46.384H1505.528z M949.079,1745.08l190.452-190.452l32.799,32.799l-32.799,32.799
		l-19.679-19.679l26.239-26.239l6.56,6.56l-19.679,19.679l6.56,6.56l19.679-19.679l-19.699-20.14l-190.432,190.855l-190.432-190.855
		l-19.699,20.14l19.679,19.679l6.56-6.56l-19.679-19.679l6.56-6.56l26.239,26.239l-19.679,19.679l-32.799-32.799l32.799-32.799
		L949.079,1745.08z M392.629,1514.591h269.34v46.384h-46.384v-27.831h37.108v9.277h-27.831v9.277h27.831l0.312-28.171
		l-269.611,0.299l0.299-269.611l-28.171,0.312v27.831h9.277v-27.831h9.277l0,37.108h-27.831v-46.384h46.384V1514.591z
		 M162.14,958.141l190.452,190.452l-32.799,32.799l-32.799-32.799l19.679-19.679l26.239,26.239l-6.56,6.56l-19.679-19.679
		l-6.56,6.56l19.679,19.679l20.14-19.699L149.079,958.141l190.855-190.432l-20.14-19.699l-19.679,19.679l6.56,6.56l19.679-19.679
		l6.56,6.56l-26.239,26.239l-19.679-19.679l32.799-32.799l32.799,32.799L162.14,958.141z M392.629,401.692v269.34h-46.384v-46.384
		h27.831l0,37.108h-9.277v-27.831h-9.277v27.831l28.171,0.312l-0.299-269.611l269.611,0.299l-0.312-28.171h-27.831v9.277h27.831
		v9.277l-37.108,0v-27.831h46.384v46.384H392.629z M949.079,171.203L758.626,361.655l-32.799-32.799l32.799-32.799l19.679,19.679
		l-26.239,26.239l-6.56-6.56l19.679-19.679l-6.56-6.56l-19.679,19.679l19.699,20.14l190.432-190.855l190.432,190.855l19.699-20.14
		l-19.679-19.679l-6.56,6.56l19.679,19.679l-6.56,6.56l-26.239-26.239l19.679-19.679l32.799,32.799l-32.799,32.799L949.079,171.203z
		 M327.691,1579.529h0.311v-0.312h-0.311V1579.529z M1486.974,420.246h-278.62l-0.217-9.277h288.114v288.114l-9.277-0.217V420.246z
		 M1709.778,958.141l-197.014-197.014l6.406-6.713l203.727,203.727l-203.727,203.727l-6.406-6.713L1709.778,958.141z
		 M1486.974,1496.037v-278.62l9.277-0.217v288.114h-288.114l0.217-9.277H1486.974z M949.079,1718.841l197.014-197.014l6.713,6.406
		L949.079,1731.96l-203.727-203.727l6.713-6.406L949.079,1718.841z M411.183,1496.037h278.62l0.217,9.277H401.906V1217.2
		l9.277,0.217V1496.037z M188.379,958.141l197.014,197.014l-6.406,6.713L175.26,958.141l203.727-203.727l6.406,6.713
		L188.379,958.141z M411.183,420.246v278.62l-9.277,0.217V410.969H690.02l-0.217,9.277H411.183z M949.079,197.442L752.065,394.456
		l-6.713-6.406l203.727-203.727l203.727,203.727l-6.713,6.406L949.079,197.442z M1175.725,410.969h23.51v9.277h-27.353
		l-19.341-19.341l6.56-6.56L1175.725,410.969z M1496.251,731.495l16.624,16.624l-6.56,6.56l-19.341-19.341v-27.353h9.277V731.495z
		 M1496.251,1184.787v23.51h-9.277v-27.353l19.341-19.341l6.56,6.56L1496.251,1184.787z M1175.725,1505.314l-16.624,16.624
		l-6.56-6.56l19.341-19.341h27.353v9.277H1175.725z M722.432,1505.314h-23.51v-9.277h27.353l19.341,19.341l-6.56,6.56
		L722.432,1505.314z M401.906,1184.787l-16.624-16.624l6.56-6.56l19.341,19.341v27.353h-9.277V1184.787z M401.906,731.495v-23.51
		h9.277v27.353l-19.341,19.341l-6.56-6.56L401.906,731.495z M722.432,410.969l16.624-16.624l6.56,6.56l-19.341,19.341h-27.353
		v-9.277H722.432z M1468.421,438.799h-222.956v27.831h27.831v-9.277l-27.831,0l0-9.277h37.108v27.831h-46.384v-46.384h241.51v241.51
		h-46.384v-46.384h27.831v37.108l-9.277,0v-27.831h-9.277v27.831h27.831V438.799z M1683.539,958.141l-157.654-157.654
		l-19.679,19.679l19.679,19.679l6.56-6.56l-19.679-19.679l6.56-6.56l26.239,26.239l-19.679,19.679l-32.799-32.799l32.799-32.799
		l170.773,170.773l-170.773,170.773l-32.799-32.799l32.799-32.799l19.679,19.679l-26.239,26.239l-6.56-6.56l19.679-19.679
		l-6.56-6.56l-19.679,19.679l19.679,19.679L1683.539,958.141z M1468.421,1477.483v-222.956h-27.831v27.831h9.277v-27.831l9.277,0
		v37.108h-27.831v-46.384h46.384v241.51h-241.51v-46.384h46.384v27.831h-37.108l0-9.277h27.831v-9.277h-27.831v27.831H1468.421z
		 M949.079,1692.602l157.654-157.654l-19.679-19.679l-19.679,19.679l6.56,6.56l19.679-19.679l6.56,6.56l-26.239,26.239
		l-19.679-19.679l32.799-32.799l32.799,32.799l-170.773,170.773l-170.773-170.773l32.799-32.799l32.799,32.799l-19.679,19.679
		l-26.239-26.239l6.56-6.56l19.679,19.679l6.56-6.56l-19.679-19.679l-19.679,19.679L949.079,1692.602z M429.737,1477.483h222.956
		v-27.831h-27.831v9.277h27.831l0,9.277h-37.108v-27.831h46.384v46.384H420.46v-241.51h46.384v46.384h-27.831v-37.108l9.277,0
		l0,27.831h9.277v-27.831h-27.831V1477.483z M214.618,958.141l157.654,157.654l19.679-19.679l-19.679-19.679l-6.56,6.56
		l19.679,19.679l-6.56,6.56l-26.239-26.239l19.679-19.679l32.799,32.799l-32.799,32.799L201.499,958.141l170.773-170.773
		l32.799,32.799l-32.799,32.799l-19.679-19.679l26.239-26.239l6.56,6.56l-19.679,19.679l6.56,6.56l19.679-19.679l-19.679-19.679
		L214.618,958.141z M429.737,438.799v222.956h27.831v-27.831h-9.277l0,27.831l-9.277,0v-37.108h27.831v46.384H420.46v-241.51h241.51
		v46.384h-46.384v-27.831h37.108l0,9.277l-27.831,0v9.277h27.831v-27.831H429.737z M949.079,223.681L791.425,381.334l19.679,19.679
		l19.679-19.679l-6.56-6.56l-19.679,19.679l-6.56-6.56l26.239-26.239l19.679,19.679l-32.799,32.799l-32.799-32.799l170.773-170.773
		l170.773,170.773l-32.799,32.799l-32.799-32.799l19.679-19.679l26.239,26.239l-6.56,6.56l-19.679-19.679l-6.56,6.56l19.679,19.679
		l19.679-19.679L949.079,223.681z M1236.188,373.861h-27.831v18.554h-9.277v-27.831h37.107V373.861z M738.947,341.976
		l-19.679,19.679l13.119,13.119l-6.56,6.56l-19.679-19.679l26.239-26.239L738.947,341.976z M364.799,671.032v27.831h18.554v9.277
		h-27.831v-37.107H364.799z M332.914,1168.273l19.679,19.679l13.119-13.12l6.56,6.56l-19.679,19.679l-26.239-26.239
		L332.914,1168.273z M661.97,1542.421H689.8v-18.554h9.277v27.831H661.97V1542.421z M1159.21,1574.306l19.679-19.679l-13.12-13.12
		l6.56-6.56l19.679,19.679l-26.239,26.239L1159.21,1574.306z M1533.359,1245.25v-27.831h-18.554v-9.277h27.831v37.107H1533.359z
		 M1565.244,748.01l-19.679-19.679l-13.12,13.119l-6.56-6.56l19.679-19.679l26.239,26.239L1565.244,748.01z M1542.635,671.032
		v37.107h-27.831v-9.277h18.554v-27.831H1542.635z M1165.77,335.416l26.239,26.239l-19.679,19.679l-6.56-6.56l13.12-13.119
		l-19.679-19.679L1165.77,335.416z M661.97,364.584h37.107v27.831H689.8v-18.554H661.97V364.584z M326.354,741.45l26.239-26.239
		l19.679,19.679l-6.56,6.56l-13.119-13.119l-19.679,19.679L326.354,741.45z M355.522,1245.25v-37.107h27.831v9.277h-18.554v27.831
		H355.522z M732.388,1580.866l-26.239-26.239l19.679-19.679l6.56,6.56l-13.119,13.12l19.679,19.679L732.388,1580.866z
		 M1236.188,1551.698h-37.107v-27.831h9.277v18.554h27.831V1551.698z M1571.804,1174.832l-26.239,26.239l-19.679-19.679l6.56-6.56
		l13.12,13.12l19.679-19.679L1571.804,1174.832z M1226.128,532.875h9.277v-9.277h-18.554l0.008,10.953
		c-23.393-6.888-48.103-11.648-74.001-13.987l-0.229-6.251l92.893,0.006l0.048,26.289c-3.092-1.093-6.208-2.149-9.35-3.165
		L1226.128,532.875z M844.273,461.529l6.56-6.56l-6.56-6.56l-13.119,13.119l7.751,7.739c-21.412,11.671-42.251,25.777-62.217,42.436
		l-4.582-4.258l65.689-65.681l18.623,18.555c-2.959,1.413-5.909,2.87-8.849,4.373L844.273,461.529z M523.812,681.092v-9.277h-9.277
		v18.554l10.953-0.008c-6.888,23.393-11.648,48.103-13.987,74.001l-6.251,0.229l0.006-92.893l26.289-0.048
		c-1.093,3.091-2.149,6.208-3.165,9.35L523.812,681.092z M452.467,1062.947l-6.56-6.56l-6.56,6.56l13.119,13.119l7.739-7.75
		c11.671,21.411,25.777,42.25,42.436,62.217l-4.258,4.582l-65.681-65.689l18.555-18.623c1.413,2.959,2.87,5.909,4.373,8.849
		L452.467,1062.947z M672.03,1383.408h-9.277v9.277h18.554l-0.008-10.953c23.393,6.888,48.103,11.648,74.001,13.987l0.229,6.251
		l-92.893-0.006l-0.048-26.289c3.091,1.094,6.208,2.149,9.35,3.165L672.03,1383.408z M1053.884,1454.753l-6.56,6.56l6.56,6.56
		l13.119-13.119l-7.75-7.739c21.411-11.671,42.25-25.777,62.217-42.436l4.582,4.258l-65.689,65.681l-18.623-18.555
		c2.959-1.413,5.909-2.87,8.849-4.373L1053.884,1454.753z M1374.345,1235.19v9.277h9.277v-18.554l-10.953,0.008
		c6.888-23.393,11.648-48.103,13.987-74.001l6.251-0.229l-0.006,92.893l-26.289,0.048c1.094-3.092,2.149-6.208,3.165-9.35
		L1374.345,1235.19z M1445.691,853.336l6.56,6.56l6.56-6.56l-13.119-13.119l-7.739,7.751
		c-11.671-21.412-25.777-42.251-42.436-62.217l4.258-4.582l65.681,65.689L1446.9,865.48c-1.413-2.959-2.87-5.909-4.373-8.849
		L1445.691,853.336z M1369.778,680.999c-1.017-3.141-2.072-6.258-3.165-9.35l26.289,0.048l0.006,92.893l-6.251-0.229
		c-2.339-25.898-7.099-50.609-13.987-74.001l10.953,0.008v-18.554h-9.277v9.277L1369.778,680.999z M1050.589,464.693
		c-2.94-1.503-5.89-2.96-8.849-4.373l18.623-18.555l65.689,65.681l-4.582,4.258c-19.967-16.659-40.806-30.766-62.217-42.436
		l7.75-7.739l-13.119-13.119l-6.56,6.56l6.56,6.56L1050.589,464.693z M671.937,537.442c-3.141,1.017-6.258,2.072-9.35,3.165
		l0.048-26.289l92.893-0.006l-0.229,6.251c-25.898,2.339-50.609,7.099-74.001,13.987l0.008-10.953h-18.554v9.277h9.277
		L671.937,537.442z M455.631,856.631c-1.503,2.94-2.96,5.89-4.373,8.849l-18.555-18.623l65.681-65.689l4.258,4.582
		c-16.659,19.967-30.766,40.806-42.436,62.217l-7.739-7.751l-13.119,13.119l6.56,6.56l6.56-6.56L455.631,856.631z M528.38,1235.283
		c1.017,3.141,2.072,6.258,3.165,9.35l-26.289-0.048l-0.006-92.893l6.251,0.229c2.339,25.898,7.099,50.609,13.987,74.001
		l-10.953-0.008v18.554h9.277v-9.277L528.38,1235.283z M847.568,1451.589c2.94,1.503,5.89,2.96,8.849,4.373l-18.623,18.555
		l-65.689-65.681l4.582-4.258c19.967,16.659,40.806,30.766,62.217,42.436l-7.751,7.739l13.119,13.119l6.56-6.56l-6.56-6.56
		L847.568,1451.589z M1226.22,1378.84c3.141-1.017,6.258-2.072,9.35-3.165l-0.048,26.289l-92.893,0.006l0.229-6.251
		c25.898-2.339,50.609-7.099,74.001-13.987l-0.008,10.953h18.554v-9.277h-9.277L1226.22,1378.84z M1442.527,1059.651
		c1.503-2.94,2.96-5.89,4.373-8.849l18.555,18.623l-65.681,65.689l-4.258-4.582c16.659-19.967,30.766-40.806,42.436-62.217
		l7.739,7.75l13.119-13.119l-6.56-6.56l-6.56,6.56L1442.527,1059.651z M1328.173,505.041h-18.554v37.107h-9.277v9.277h18.554
		v-37.107h9.277L1328.173,505.041z M896.748,369.69l-13.12,13.119l26.239,26.239l-6.56,6.56l6.56,6.56l13.119-13.119l-26.239-26.239
		l6.56-6.56L896.748,369.69z M495.978,579.047v18.554h37.107v9.277h9.277v-18.554h-37.107v-9.277L495.978,579.047z
		 M360.628,1010.472l13.119,13.119l26.239-26.239l6.56,6.56l6.56-6.56l-13.119-13.119l-26.239,26.239l-6.56-6.56L360.628,1010.472z
		 M569.984,1411.242h18.554v-37.107h9.277v-9.277h-18.554v37.108h-9.277L569.984,1411.242z M1001.409,1546.592l13.119-13.119
		l-26.239-26.239l6.56-6.56l-6.56-6.56l-13.119,13.119l26.239,26.239l-6.56,6.56L1001.409,1546.592z M1402.179,1337.236v-18.554
		h-37.107v-9.277h-9.277v18.554h37.108v9.277L1402.179,1337.236z M1537.529,905.811l-13.119-13.12l-26.239,26.239l-6.56-6.56
		l-6.56,6.56l13.119,13.119l26.239-26.239l6.56,6.56L1537.529,905.811z M1392.903,579.047v9.277h-37.108v18.554h9.277v-9.277h37.107
		v-18.554L1392.903,579.047z M994.849,376.25l6.56,6.56l-26.239,26.239l13.119,13.119l6.56-6.56l-6.56-6.56l26.239-26.239
		l-13.119-13.119L994.849,376.25z M569.984,514.317h9.277v37.107h18.554v-9.277h-9.277v-37.107h-18.554L569.984,514.317z
		 M367.188,912.37l6.56-6.56l26.239,26.239l13.119-13.119l-6.56-6.56l-6.56,6.56l-26.239-26.239l-13.119,13.12L367.188,912.37z
		 M505.255,1337.235v-9.277h37.107v-18.554h-9.277v9.277h-37.107v18.554L505.255,1337.235z M903.308,1540.032l-6.56-6.56
		l26.239-26.239l-13.119-13.119l-6.56,6.56l6.56,6.56l-26.239,26.239l13.12,13.119L903.308,1540.032z M1328.173,1401.965h-9.277
		v-37.108h-18.554v9.277h9.277v37.107h18.554L1328.173,1401.965z M1530.97,1003.912l-6.56,6.56l-26.239-26.239l-13.119,13.119
		l6.56,6.56l6.56-6.56l26.239,26.239l13.119-13.119L1530.97,1003.912z M1365.068,542.152h-18.341v18.341h18.341V542.152z
		 M1537.377,958.141l-12.969-12.969l-12.969,12.969l12.969,12.969L1537.377,958.141z M1365.068,1374.131v-18.341h-18.341v18.341
		H1365.068z M949.079,1546.439l12.969-12.969l-12.969-12.969l-12.969,12.969L949.079,1546.439z M533.089,1374.131h18.341v-18.341
		h-18.341V1374.131z M360.781,958.141l12.969,12.969l12.969-12.969l-12.969-12.969L360.781,958.141z M533.089,542.152v18.341h18.341
		v-18.341H533.089z M949.079,369.843l-12.969,12.969l12.969,12.969l12.969-12.969L949.079,369.843z M1383.622,523.598h-18.341
		v18.341h18.341V523.598z M1563.616,958.141l-12.969-12.969l-12.969,12.969l12.969,12.969L1563.616,958.141z M1383.622,1392.685
		v-18.341h-18.341v18.341H1383.622z M949.079,1572.678l12.969-12.969l-12.969-12.969l-12.969,12.969L949.079,1572.678z
		 M514.535,1392.685h18.341v-18.341h-18.341V1392.685z M334.542,958.141l12.969,12.969l12.969-12.969l-12.969-12.969
		L334.542,958.141z M514.535,523.598v18.341h18.341v-18.341H514.535z M949.079,343.604l-12.969,12.969l12.969,12.969l12.969-12.969
		L949.079,343.604z M1402.176,505.044h-18.341v18.341h18.341V505.044z M1589.855,958.141l-12.969-12.969l-12.969,12.969
		l12.969,12.969L1589.855,958.141z M1402.176,1411.238v-18.341h-18.341v18.341H1402.176z M949.079,1598.917l12.969-12.969
		l-12.969-12.969l-12.969,12.969L949.079,1598.917z M495.982,1411.238h18.341v-18.341h-18.341V1411.238z M308.303,958.141
		l12.969,12.969l12.969-12.969l-12.969-12.969L308.303,958.141z M495.982,505.044v18.341h18.341v-18.341H495.982z M949.079,317.365
		l-12.969,12.969l12.969,12.969l12.969-12.969L949.079,317.365z M1346.52,560.7h-18.344l0.039,18.305l18.305,0.039V560.7z
		 M949.079,396.074l-12.971,12.971l12.971,12.916l12.971-12.916L949.079,396.074z M551.638,560.7v18.344l18.305-0.039l0.039-18.305
		H551.638z M387.012,958.141l12.971,12.971l12.916-12.971l-12.916-12.971L387.012,958.141z M551.638,1355.582h18.344l-0.039-18.305
		l-18.305-0.039V1355.582z M949.079,1520.208l12.971-12.971l-12.971-12.916l-12.971,12.916L949.079,1520.208z M1346.52,1355.582
		v-18.344l-18.305,0.039l-0.039,18.305H1346.52z M1511.146,958.141l-12.971-12.971l-12.916,12.971l12.916,12.971L1511.146,958.141z
		 M1327.966,579.254l-14.596,0.027c-4.889-3.232-9.877-6.354-14.962-9.361l1.937,0.059v-37.107h9.277v-9.277h-18.554v37.107
		l-9.232,0.007l-0.044-9.284h9.277v-9.277h-18.554l0.027,13.887c-9.019-4.371-18.298-8.398-27.827-12.059l-0.016-29.658h9.42
		l-0.158,9.28h-9.277v9.277h18.554l0.138-18.557h18.416v-18.554h46.451l-0.067,27.829h-9.277v9.277h18.554l0-37.107h9.277v9.277
		h-9.277v9.277h18.554l0.039-18.551l46.345-0.005v9.068l9.068,0l-0.005,46.345l-18.551,0.039v18.554h9.277v-9.277h9.277v9.277
		l-37.107,0v18.554h9.277v-9.277l27.829-0.067v46.451h-18.554v18.416l-18.557,0.138v18.554h9.277v-9.277l9.28-0.158v9.42
		l-29.657-0.016c-3.661-9.529-7.688-18.808-12.059-27.827l13.887,0.027v-18.554h-9.277v9.277l-9.284-0.044l0.007-9.232h37.107
		v-18.554h-9.277v9.277h-37.107l0.059,1.937c-3.007-5.085-6.129-10.073-9.361-14.962L1327.966,579.254z M949.079,422.314
		l-10.302,10.34c-5.743,1.172-11.477,2.491-17.199,3.96l1.411-1.328l-26.239-26.239l6.56-6.56l-6.56-6.56l-13.119,13.119
		l26.239,26.239l-6.523,6.533l-6.596-6.533l6.56-6.56l-6.56-6.56l-13.119,13.119l9.839,9.801c-9.468,3.287-18.877,7-28.204,11.15
		l-20.982-20.96l6.661-6.661l6.45,6.674l-6.56,6.56l6.56,6.56l13.119-13.119L857.49,422.07l13.022-13.022l-13.119-13.119
		l32.846-32.846l19.631,19.725l-6.56,6.56l6.56,6.56l13.119-13.119L896.75,356.57l6.56-6.56l6.56,6.56l-6.56,6.56l6.56,6.56
		l13.119-13.119l-13.09-13.145l32.767-32.775l6.412,6.412l6.412-6.412l32.767,32.775l-13.09,13.145l13.119,13.119l6.56-6.56
		l-6.56-6.56l6.56-6.56l6.56,6.56l-26.239,26.238l13.12,13.119l6.56-6.56l-6.56-6.56l19.631-19.725l32.846,32.846l-13.12,13.119
		l13.022,13.022l-13.024,13.219l13.119,13.119l6.56-6.56l-6.56-6.56l6.45-6.674l6.661,6.661l-20.982,20.96
		c-9.327-4.15-18.736-7.863-28.204-11.15l9.839-9.801l-13.119-13.119l-6.56,6.56l6.56,6.56l-6.596,6.533l-6.523-6.533l26.239-26.239
		l-13.12-13.119l-6.56,6.56l6.56,6.56l-26.239,26.239l1.411,1.328c-5.722-1.469-11.457-2.789-17.199-3.96L949.079,422.314z
		 M570.191,579.254l0.027,14.596c-3.232,4.889-6.354,9.877-9.361,14.962l0.059-1.937h-37.107v-9.277h-9.277v18.554h37.107
		l0.007,9.232l-9.284,0.044v-9.277h-9.277v18.554l13.887-0.027c-4.371,9.019-8.398,18.298-12.059,27.827l-29.658,0.016v-9.42
		l9.28,0.158v9.277h9.277v-18.554l-18.557-0.138v-18.416h-18.554v-46.451l27.829,0.067v9.277h9.277v-18.554l-37.107,0v-9.277h9.277
		v9.277h9.277v-18.554l-18.551-0.039l-0.005-46.345l9.068,0l0-9.068l46.345,0.005l0.039,18.551h18.554v-9.277h-9.277v-9.277h9.277
		l0,37.107h18.554v-9.277h-9.277l-0.067-27.829h46.451v18.554h18.416l0.138,18.557h18.554v-9.277h-9.277l-0.158-9.28h9.42
		l-0.016,29.658c-9.529,3.661-18.808,7.688-27.827,12.059l0.027-13.887h-18.554v9.277h9.277l-0.044,9.284l-9.232-0.007v-37.107
		h-18.554v9.277h9.277v37.107l1.937-0.059c-5.085,3.007-10.073,6.129-14.962,9.361L570.191,579.254z M413.251,958.141l10.34,10.302
		c1.172,5.743,2.491,11.477,3.96,17.199l-1.328-1.411l-26.239,26.239l-6.56-6.56l-6.56,6.56l13.119,13.12l26.239-26.239l6.533,6.523
		l-6.533,6.596l-6.56-6.56l-6.56,6.56l13.119,13.119l9.801-9.839c3.287,9.468,7,18.877,11.15,28.204l-20.96,20.982l-6.661-6.661
		l6.674-6.45l6.56,6.56l6.56-6.56l-13.119-13.119l-13.219,13.024l-13.022-13.022l-13.119,13.12l-32.846-32.846l19.725-19.631
		l6.56,6.56l6.56-6.56l-13.119-13.12l-26.238,26.239l-6.56-6.56l6.56-6.56l6.56,6.56l6.56-6.56l-13.119-13.119l-13.145,13.09
		l-32.775-32.767l6.412-6.412l-6.412-6.412l32.775-32.767l13.145,13.09l13.119-13.119l-6.56-6.56l-6.56,6.56l-6.56-6.56l6.56-6.56
		l26.238,26.239l13.119-13.119l-6.56-6.56l-6.56,6.56l-19.725-19.631l32.846-32.846l13.119,13.119l13.022-13.022l13.219,13.024
		l13.119-13.119l-6.56-6.56l-6.56,6.56l-6.674-6.45l6.661-6.661l20.96,20.982c-4.15,9.327-7.863,18.736-11.15,28.204l-9.801-9.839
		l-13.119,13.119l6.56,6.56l6.56-6.56l6.533,6.596l-6.533,6.523l-26.239-26.239l-13.119,13.119l6.56,6.56l6.56-6.56l26.239,26.239
		l1.328-1.411c-1.469,5.722-2.789,11.457-3.96,17.199L413.251,958.141z M570.191,1337.028l14.596-0.027
		c4.889,3.232,9.877,6.354,14.962,9.361l-1.937-0.059v37.107h-9.277v9.277h18.554v-37.107l9.232-0.007l0.044,9.284h-9.277v9.277
		h18.554l-0.027-13.887c9.019,4.371,18.298,8.398,27.827,12.059l0.016,29.657h-9.42l0.158-9.28h9.277v-9.277H634.92l-0.138,18.557
		h-18.416v18.554h-46.451l0.067-27.829h9.277v-9.277h-18.554l0,37.107h-9.277v-9.277h9.277v-9.277h-18.554l-0.039,18.551
		l-46.345,0.005l0-9.068h-9.068l0.005-46.345l18.551-0.039v-18.554h-9.277v9.277h-9.277v-9.277l37.107,0v-18.554h-9.277v9.277
		l-27.829,0.067v-46.451h18.554v-18.416l18.557-0.138v-18.554h-9.277v9.277l-9.28,0.158v-9.42l29.658,0.016
		c3.661,9.529,7.688,18.808,12.059,27.827l-13.887-0.027v18.554h9.277v-9.277l9.284,0.044l-0.007,9.232h-37.107v18.554h9.277v-9.277
		h37.107l-0.059-1.937c3.007,5.085,6.129,10.073,9.361,14.962L570.191,1337.028z M949.079,1493.969l10.302-10.34
		c5.743-1.172,11.477-2.491,17.199-3.96l-1.411,1.328l26.239,26.239l-6.56,6.56l6.56,6.56l13.12-13.12l-26.239-26.239l6.523-6.533
		l6.596,6.533l-6.56,6.56l6.56,6.56l13.119-13.119l-9.839-9.801c9.468-3.286,18.877-7,28.204-11.15l20.982,20.96l-6.661,6.661
		l-6.45-6.674l6.56-6.56l-6.56-6.56l-13.119,13.119l13.024,13.219l-13.022,13.022l13.12,13.12l-32.846,32.846l-19.631-19.725
		l6.56-6.56l-6.56-6.56l-13.12,13.12l26.239,26.238l-6.56,6.56l-6.56-6.56l6.56-6.56l-6.56-6.56l-13.119,13.119l13.09,13.145
		l-32.767,32.775l-6.412-6.412l-6.412,6.412l-32.767-32.775l13.09-13.145l-13.119-13.119l-6.56,6.56l6.56,6.56l-6.56,6.56
		l-6.56-6.56l26.239-26.238l-13.119-13.12l-6.56,6.56l6.56,6.56l-19.631,19.725l-32.846-32.846l13.119-13.12l-13.022-13.022
		l13.024-13.219l-13.119-13.119l-6.56,6.56l6.56,6.56l-6.45,6.674l-6.661-6.661l20.982-20.96c9.327,4.15,18.736,7.863,28.204,11.15
		l-9.839,9.801l13.119,13.119l6.56-6.56l-6.56-6.56l6.596-6.533l6.523,6.533l-26.239,26.239l13.119,13.12l6.56-6.56l-6.56-6.56
		l26.239-26.239l-1.411-1.328c5.722,1.469,11.457,2.789,17.199,3.96L949.079,1493.969z M1327.966,1337.028l-0.027-14.596
		c3.232-4.889,6.354-9.877,9.361-14.962l-0.059,1.937h37.107v9.277h9.277v-18.554h-37.107l-0.007-9.232l9.284-0.044v9.277h9.277
		v-18.554l-13.887,0.027c4.371-9.019,8.398-18.298,12.059-27.827l29.657-0.016v9.42l-9.28-0.158v-9.277h-9.277v18.554l18.557,0.138
		v18.416h18.554v46.451l-27.829-0.067v-9.277h-9.277v18.554l37.107,0v9.277h-9.277v-9.277h-9.277v18.554l18.551,0.039l0.005,46.345
		h-9.068v9.068l-46.345-0.005l-0.039-18.551h-18.554v9.277h9.277v9.277h-9.277l0-37.107h-18.554v9.277h9.277l0.067,27.829h-46.451
		v-18.554h-18.416l-0.138-18.557h-18.554v9.277h9.277l0.158,9.28h-9.42l0.016-29.657c9.529-3.661,18.808-7.688,27.827-12.059
		l-0.027,13.887h18.554v-9.277h-9.277l0.044-9.284l9.232,0.007v37.107h18.554v-9.277h-9.277v-37.107l-1.937,0.059
		c5.085-3.007,10.073-6.129,14.962-9.361L1327.966,1337.028z M1484.906,958.141l-10.34-10.302
		c-1.172-5.743-2.491-11.477-3.96-17.199l1.328,1.411l26.239-26.239l6.56,6.56l6.56-6.56l-13.12-13.119l-26.239,26.239l-6.533-6.523
		l6.533-6.596l6.56,6.56l6.56-6.56l-13.119-13.119l-9.801,9.839c-3.286-9.468-7-18.877-11.15-28.204l20.96-20.982l6.661,6.661
		l-6.674,6.45l-6.56-6.56l-6.56,6.56l13.119,13.119l13.219-13.024l13.022,13.022l13.12-13.119l32.846,32.846l-19.725,19.631
		l-6.56-6.56l-6.56,6.56l13.12,13.119l26.238-26.239l6.56,6.56l-6.56,6.56l-6.56-6.56l-6.56,6.56l13.119,13.119l13.145-13.09
		l32.775,32.767l-6.412,6.412l6.412,6.412l-32.775,32.767l-13.145-13.09l-13.119,13.119l6.56,6.56l6.56-6.56l6.56,6.56l-6.56,6.56
		l-26.238-26.239l-13.12,13.12l6.56,6.56l6.56-6.56l19.725,19.631l-32.846,32.846l-13.12-13.12l-13.022,13.022l-13.219-13.024
		l-13.119,13.119l6.56,6.56l6.56-6.56l6.674,6.45l-6.661,6.661l-20.96-20.982c4.15-9.327,7.863-18.736,11.15-28.204l9.801,9.839
		l13.119-13.119l-6.56-6.56l-6.56,6.56l-6.533-6.596l6.533-6.523l26.239,26.239l13.12-13.12l-6.56-6.56l-6.56,6.56l-26.239-26.239
		l-1.328,1.411c1.469-5.722,2.789-11.457,3.96-17.199L1484.906,958.141z M1420.632,486.587l-148.373,0.172v18.556h-135.614
		l-95.894-95.894l13.121-13.121L949.079,291.263L844.284,396.3l13.121,13.121l-95.894,95.894H625.898v-18.556l-148.373-0.172
		l0.172,148.373h18.556v135.614l-95.894,95.894l-13.121-13.121L282.201,958.141l105.037,104.794l13.121-13.121l95.894,95.894
		v135.614h-18.556l-0.172,148.373l148.373-0.172v-18.556h135.614l95.894,95.894l-13.121,13.121l104.794,105.037l104.794-105.037
		l-13.121-13.121l95.894-95.894h135.614v18.556l148.373,0.172l-0.172-148.373h-18.556v-135.614l95.894-95.894l13.121,13.121
		l105.037-104.794L1510.92,853.347l-13.121,13.121l-95.894-95.894V634.96h18.556L1420.632,486.587z M1133.106,513.861v15.443
		c5.704,0.3,11.374,0.721,17.001,1.293c5.845,0.594,11.639,1.33,17.394,2.209s11.473,1.902,17.132,3.06
		c5.659,1.158,11.266,2.449,16.822,3.878c5.555,1.429,11.05,3.003,16.494,4.696c5.444,1.693,10.841,3.515,16.167,5.465
		c5.326,1.95,10.591,4.019,15.791,6.218c5.2,2.199,10.331,4.529,15.398,6.971c5.067,2.442,10.062,4.998,14.989,7.674
		c4.927,2.677,9.784,5.474,14.563,8.378c4.779,2.904,9.48,5.924,14.105,9.049c1.999,1.351,3.983,2.72,5.952,4.11
		c1.389,1.969,2.759,3.953,4.11,5.952c3.124,4.625,6.145,9.326,9.049,14.105s5.702,9.636,8.378,14.563
		c2.676,4.927,5.233,9.922,7.674,14.989c2.442,5.067,4.771,10.198,6.971,15.398c2.199,5.2,4.268,10.465,6.218,15.791
		c1.95,5.326,3.772,10.723,5.465,16.167s3.267,10.939,4.696,16.494c1.429,5.555,2.72,11.163,3.878,16.822
		c1.158,5.659,2.18,11.377,3.06,17.132s1.616,11.55,2.209,17.394c0.572,5.628,0.993,11.297,1.293,17.001h15.443l-10.92,10.92
		c3.821,4.245,7.532,8.552,11.108,12.936c3.713,4.552,7.29,9.17,10.738,13.862s6.768,9.458,9.951,14.278
		c3.183,4.82,6.235,9.698,9.152,14.637c2.917,4.939,5.69,9.937,8.343,14.984c2.652,5.047,5.18,10.152,7.567,15.296
		c2.387,5.145,4.647,10.33,6.769,15.563c2.122,5.232,4.102,10.507,5.959,15.817c1.856,5.31,3.581,10.649,5.172,16.025
		c1.591,5.377,3.048,10.789,4.374,16.222c1.326,5.433,2.514,10.893,3.575,16.372c0.459,2.369,0.893,4.74,1.303,7.115
		c-0.41,2.375-0.844,4.746-1.303,7.115c-1.061,5.479-2.249,10.939-3.575,16.372c-1.326,5.433-2.782,10.846-4.374,16.222
		s-3.316,10.716-5.172,16.025c-1.857,5.31-3.837,10.585-5.959,15.817c-2.122,5.232-4.382,10.418-6.769,15.563
		c-2.387,5.145-4.915,10.25-7.567,15.296c-2.652,5.047-5.425,10.045-8.343,14.984c-2.917,4.939-5.97,9.817-9.152,14.637
		s-6.503,9.587-9.951,14.278c-3.448,4.692-7.024,9.309-10.738,13.862c-3.575,4.384-7.286,8.691-11.108,12.936l10.92,10.92h-15.443
		c-0.3,5.704-0.721,11.374-1.293,17.001c-0.594,5.845-1.33,11.639-2.209,17.394s-1.902,11.473-3.06,17.132
		c-1.158,5.659-2.449,11.266-3.878,16.822c-1.429,5.555-3.003,11.05-4.696,16.494s-3.515,10.841-5.465,16.167
		c-1.95,5.326-4.019,10.591-6.218,15.791s-4.529,10.331-6.971,15.398c-2.442,5.067-4.998,10.062-7.674,14.989
		c-2.677,4.927-5.474,9.784-8.378,14.563c-2.904,4.779-5.925,9.48-9.049,14.105c-1.351,1.999-2.72,3.983-4.11,5.952
		c-1.969,1.389-3.953,2.759-5.952,4.11c-4.625,3.124-9.326,6.145-14.105,9.049c-4.78,2.904-9.636,5.702-14.563,8.378
		c-4.927,2.676-9.922,5.233-14.989,7.674c-5.067,2.442-10.198,4.771-15.398,6.971s-10.465,4.268-15.791,6.218
		c-5.326,1.95-10.723,3.772-16.167,5.465s-10.939,3.267-16.494,4.696c-5.555,1.429-11.163,2.72-16.822,3.878
		c-5.659,1.158-11.377,2.18-17.132,3.06s-11.55,1.616-17.394,2.209c-5.628,0.572-11.297,0.993-17.001,1.293v15.443l-10.92-10.92
		c-4.245,3.821-8.552,7.532-12.936,11.108c-4.552,3.713-9.17,7.29-13.862,10.738c-4.692,3.448-9.458,6.768-14.278,9.951
		s-9.698,6.235-14.637,9.152c-4.939,2.917-9.937,5.69-14.984,8.343c-5.047,2.652-10.152,5.18-15.296,7.567
		c-5.145,2.387-10.33,4.647-15.563,6.769c-5.232,2.122-10.508,4.102-15.817,5.959c-5.31,1.856-10.649,3.581-16.025,5.172
		s-10.789,3.048-16.222,4.374c-5.433,1.326-10.893,2.514-16.372,3.575c-2.369,0.459-4.74,0.893-7.115,1.303
		c-2.375-0.41-4.746-0.844-7.115-1.303c-5.48-1.061-10.939-2.249-16.372-3.575c-5.433-1.326-10.846-2.782-16.222-4.374
		c-5.376-1.591-10.716-3.316-16.025-5.172c-5.31-1.857-10.585-3.837-15.817-5.959c-5.232-2.122-10.418-4.382-15.563-6.769
		c-5.145-2.387-10.25-4.915-15.296-7.567c-5.047-2.652-10.045-5.425-14.984-8.343c-4.939-2.917-9.817-5.97-14.637-9.152
		c-4.82-3.183-9.586-6.503-14.278-9.951s-9.309-7.024-13.862-10.738c-4.384-3.575-8.691-7.286-12.936-11.108l-10.92,10.92v-15.443
		c-5.704-0.3-11.373-0.721-17.001-1.293c-5.845-0.594-11.639-1.33-17.394-2.209s-11.473-1.902-17.132-3.06
		c-5.659-1.158-11.266-2.449-16.822-3.878c-5.555-1.429-11.05-3.003-16.494-4.696s-10.841-3.515-16.167-5.465
		c-5.326-1.95-10.591-4.019-15.791-6.218c-5.2-2.199-10.331-4.529-15.398-6.971c-5.067-2.442-10.062-4.998-14.989-7.674
		c-4.927-2.677-9.784-5.474-14.563-8.378s-9.48-5.925-14.105-9.049c-1.999-1.351-3.983-2.72-5.952-4.11
		c-1.389-1.969-2.759-3.953-4.11-5.952c-3.124-4.625-6.145-9.326-9.049-14.105c-2.904-4.78-5.702-9.636-8.378-14.563
		c-2.676-4.927-5.233-9.922-7.674-14.989c-2.442-5.067-4.771-10.198-6.971-15.398c-2.199-5.2-4.268-10.465-6.218-15.791
		c-1.95-5.326-3.772-10.723-5.465-16.167c-1.693-5.444-3.267-10.939-4.696-16.494c-1.429-5.555-2.72-11.163-3.878-16.822
		c-1.158-5.659-2.18-11.377-3.06-17.132s-1.616-11.55-2.209-17.394c-0.572-5.628-0.993-11.297-1.293-17.001h-15.443l10.92-10.92
		c-3.821-4.245-7.532-8.552-11.108-12.936c-3.713-4.552-7.29-9.17-10.738-13.862c-3.448-4.692-6.768-9.458-9.951-14.278
		c-3.183-4.82-6.235-9.698-9.152-14.637c-2.917-4.939-5.69-9.937-8.342-14.984s-5.18-10.152-7.567-15.296
		c-2.387-5.145-4.647-10.33-6.769-15.563c-2.122-5.232-4.102-10.508-5.959-15.817c-1.856-5.31-3.581-10.649-5.172-16.025
		c-1.591-5.376-3.048-10.789-4.374-16.222s-2.514-10.893-3.575-16.372c-0.459-2.369-0.893-4.74-1.303-7.115
		c0.41-2.375,0.844-4.746,1.303-7.115c1.061-5.48,2.249-10.939,3.575-16.372s2.782-10.846,4.374-16.222
		c1.591-5.376,3.316-10.716,5.172-16.025c1.857-5.31,3.837-10.585,5.959-15.817s4.382-10.418,6.769-15.563
		c2.387-5.145,4.915-10.25,7.567-15.296s5.425-10.045,8.342-14.984c2.917-4.939,5.97-9.817,9.152-14.637
		c3.183-4.82,6.503-9.586,9.951-14.278c3.448-4.692,7.024-9.309,10.738-13.862c3.575-4.384,7.286-8.691,11.108-12.936l-10.92-10.92
		h15.443c0.3-5.704,0.721-11.373,1.293-17.001c0.594-5.845,1.33-11.639,2.209-17.394s1.902-11.473,3.06-17.132
		c1.158-5.659,2.449-11.266,3.878-16.822c1.429-5.555,3.003-11.05,4.696-16.494c1.693-5.444,3.515-10.841,5.465-16.167
		c1.95-5.326,4.019-10.591,6.218-15.791c2.199-5.2,4.529-10.331,6.971-15.398c2.442-5.067,4.998-10.062,7.674-14.989
		c2.677-4.927,5.474-9.784,8.378-14.563s5.924-9.48,9.049-14.105c1.351-1.999,2.72-3.983,4.11-5.952
		c1.969-1.389,3.953-2.759,5.952-4.11c4.625-3.124,9.326-6.145,14.105-9.049s9.636-5.702,14.563-8.378
		c4.927-2.676,9.922-5.233,14.989-7.674c5.067-2.442,10.198-4.771,15.398-6.971c5.2-2.199,10.465-4.268,15.791-6.218
		c5.326-1.95,10.723-3.772,16.167-5.465c5.444-1.693,10.939-3.267,16.494-4.696c5.555-1.429,11.163-2.72,16.822-3.878
		c5.659-1.158,11.377-2.18,17.132-3.06s11.55-1.616,17.394-2.209c5.628-0.572,11.297-0.993,17.001-1.293v-15.443l10.92,10.92
		c4.245-3.821,8.552-7.532,12.936-11.108c4.552-3.713,9.17-7.29,13.862-10.738c4.692-3.448,9.458-6.768,14.278-9.951
		c4.82-3.183,9.698-6.235,14.637-9.152c4.939-2.917,9.937-5.69,14.984-8.342s10.152-5.18,15.296-7.567
		c5.145-2.387,10.33-4.647,15.563-6.769s10.507-4.102,15.817-5.959c5.31-1.856,10.649-3.581,16.025-5.172
		c5.377-1.591,10.789-3.048,16.222-4.374s10.893-2.514,16.372-3.575c2.369-0.459,4.74-0.893,7.115-1.303
		c2.375,0.41,4.746,0.844,7.115,1.303c5.479,1.061,10.939,2.249,16.372,3.575s10.846,2.782,16.222,4.374
		c5.376,1.591,10.716,3.316,16.025,5.172c5.31,1.857,10.585,3.837,15.817,5.959c5.232,2.122,10.418,4.382,15.563,6.769
		c5.145,2.387,10.25,4.915,15.296,7.567s10.045,5.425,14.984,8.342c4.939,2.917,9.817,5.97,14.637,9.152
		c4.82,3.183,9.587,6.503,14.278,9.951c4.692,3.448,9.309,7.024,13.862,10.738c4.384,3.575,8.691,7.286,12.936,11.108
		L1133.106,513.861z"/>
</g>
</svg>
