<svg width="171" height="110" viewBox="0 0 171 110" fill="none" xmlns="http://www.w3.org/2000/svg">
<path d="M88.6353 32.8264C88.624 32.8264 88.6127 32.8281 88.6023 32.8281C88.6066 32.608 88.6353 32.394 88.6353 32.173C88.6353 14.753 74.5135 0.631165 57.0935 0.631165C39.6735 0.631165 25.5516 14.753 25.5516 32.173C25.5516 32.1939 25.5551 32.213 25.5551 32.2339C11.8909 32.8681 0.998535 44.1146 0.998535 57.9363C0.998535 72.1652 12.533 83.7005 26.7618 83.7005H88.6353C102.683 83.7005 114.072 72.3113 114.072 58.2634C114.072 44.2147 102.683 32.8264 88.6353 32.8264Z" fill="#62C6EF"/>
<path d="M155.055 57.2134H104.12C101.707 57.2134 99.7505 55.2568 99.7505 52.8443C99.7505 50.4309 101.707 48.4742 104.12 48.4742H155.055C158.697 48.4742 161.661 45.511 161.661 41.8683C161.661 38.2265 158.697 35.2633 155.055 35.2633H148.584C146.171 35.2633 144.214 33.3067 144.214 30.8933C144.214 28.4808 146.171 26.5241 148.584 26.5241H155.055C163.517 26.5241 170.401 33.4067 170.401 41.8683C170.401 50.3308 163.517 57.2134 155.055 57.2134Z" fill="#B4E6F5"/>
<path d="M138.453 109.557C127.665 109.557 118.886 100.779 118.886 89.9923C118.886 82.6165 124.887 76.6161 132.262 76.6161C139.638 76.6161 145.638 82.6165 145.638 89.9923V92.243C145.638 94.6564 143.681 96.6131 141.268 96.6131C138.855 96.6131 136.899 94.6564 136.899 92.243V89.9923C136.899 87.4363 134.819 85.3561 132.262 85.3561C129.706 85.3561 127.625 87.4363 127.625 89.9923C127.625 95.9623 132.484 100.818 138.453 100.818C144.423 100.818 149.28 95.9623 149.28 89.9923V85.5197C149.28 77.3591 142.642 70.721 134.481 70.721H65.8475C63.4342 70.721 61.4775 68.7652 61.4775 66.3518C61.4775 63.9384 63.4342 61.9818 65.8475 61.9818H134.481C147.46 61.9818 158.019 72.541 158.019 85.5197V89.9923C158.019 100.779 149.241 109.557 138.453 109.557Z" fill="#B4E6F5"/>
</svg>
