<svg width="114" height="114" viewBox="0 0 114 114" fill="none" xmlns="http://www.w3.org/2000/svg">
<path d="M87.9269 32.6414C87.9156 32.6414 87.9043 32.6432 87.8938 32.6432C87.8982 32.4231 87.9269 32.2091 87.9269 31.9881C87.9269 14.5681 73.805 0.446228 56.385 0.446228C38.965 0.446228 24.8432 14.5681 24.8432 31.9881C24.8432 32.0081 24.8467 32.0281 24.8467 32.049C11.1816 32.6832 0.290039 43.9297 0.290039 57.7514C0.290039 71.9802 11.8245 83.5146 26.0534 83.5146H87.9269C101.975 83.5146 113.363 72.1264 113.363 58.0785C113.363 44.0298 101.975 32.6414 87.9269 32.6414Z" fill="#62C6EF"/>
<path d="M39.0357 71.6077L29.0751 92.774C26.8853 97.4268 26.7887 102.909 29.2395 107.43C30.9726 110.627 33.9436 113.369 39.0357 113.369C44.1287 113.369 47.0997 110.627 48.8328 107.43C51.2827 102.909 51.1861 97.4268 48.9963 92.774L39.0357 71.6077Z" fill="#B4E6F5"/>
<path d="M71.8546 57.0649L61.8939 78.2312C59.7041 82.8848 59.6076 88.3658 62.0584 92.8872C63.7914 96.0853 66.7616 98.8258 71.8546 98.8258C76.9475 98.8258 79.9186 96.0853 81.6516 92.8872C84.1015 88.3658 84.005 82.8848 81.8152 78.2312L71.8546 57.0649Z" fill="#B4E6F5"/>
</svg>
