<svg width="115" height="126" viewBox="0 0 115 126" fill="none" xmlns="http://www.w3.org/2000/svg">
<path d="M79.3518 92.1066L71.3243 109.166C69.5591 112.916 69.4816 117.334 71.4565 120.978C72.8529 123.555 75.2471 125.764 79.3518 125.764C83.4564 125.764 85.8507 123.555 87.247 120.978C89.2219 117.334 89.1445 112.916 87.3793 109.166L79.3518 92.1066Z" fill="#B4E6F5"/>
<path d="M88.6353 32.6751C88.624 32.6751 88.6127 32.676 88.6023 32.676C88.6066 32.4559 88.6353 32.2428 88.6353 32.0209C88.6353 14.6009 74.5135 0.479065 57.0935 0.479065C39.6735 0.479065 25.5516 14.6009 25.5516 32.0209C25.5516 32.0418 25.5551 32.0618 25.5551 32.0818C11.8909 32.7169 0.998535 43.9634 0.998535 57.7851C0.998535 72.0139 12.533 83.5484 26.7618 83.5484H88.6353C102.683 83.5484 114.072 72.1601 114.072 58.1113C114.072 44.0635 102.683 32.6751 88.6353 32.6751Z" fill="#62C6EF"/>
<path d="M79.3517 75.8306H48.0056L63.8987 47.5748H48.0056L25.4883 88.1333H49.7708L40.0582 124.837L79.3517 75.8306Z" fill="#F8A62C"/>
</svg>
