<svg width="114" height="125" viewBox="0 0 114 125" fill="none" xmlns="http://www.w3.org/2000/svg">
<path d="M88.3204 32.8264C88.3091 32.8264 88.2987 32.8281 88.2874 32.8281C88.2918 32.608 88.3204 32.394 88.3204 32.173C88.3204 14.753 74.1986 0.631165 56.7786 0.631165C39.3586 0.631165 25.2367 14.753 25.2367 32.173C25.2367 32.1939 25.2402 32.213 25.2402 32.2339C11.576 32.8681 0.683594 44.1146 0.683594 57.9363C0.683594 72.1652 12.2181 83.7005 26.4469 83.7005H88.3204C102.368 83.7005 113.758 72.3113 113.758 58.2634C113.758 44.2147 102.368 32.8264 88.3204 32.8264Z" fill="#62C6EF"/>
<path d="M84.1516 75.9828H52.8055L68.6996 47.7261H52.8055L30.2891 88.2854H54.5716L44.8581 124.989L84.1516 75.9828Z" fill="#F8A62C"/>
</svg>
